<svg width="1269" height="245" viewBox="0 0 1269 245" fill="none" xmlns="http://www.w3.org/2000/svg">
<path d="M0 183.698L20.89 164.087C32.35 178.797 50.13 187.167 68.8 186.647C88.96 186.647 104.48 179.128 104.48 163.818C104.48 121.848 6.72998 140.787 6.72998 78.3975C6.72998 45.2875 35.67 28.8375 70.49 28.8375C94.94 28.1275 118.29 38.9775 133.5 58.1175L113.35 78.2675C103.09 64.9875 87.22 57.2575 70.42 57.3775C51.73 57.3775 37.29 64.0975 37.29 78.8675C37.29 113.647 135.38 98.0775 135.38 161.867C135.38 198.337 104.42 215.057 69.62 215.057C38.14 214.927 15.58 205.198 0 183.698Z" fill="#343B4B"/>
<path d="M148.52 160.878V80.2875H177.19V156.438C177.19 177.048 188.61 189.008 207.81 189.008C227.02 189.008 241.79 176.787 241.79 151.397V80.0775H270.47V212.378H241.79V193.438C234 207.678 219.49 215.467 199.75 215.467C168.8 215.467 148.52 193.778 148.52 160.878Z" fill="#343B4B"/>
<path d="M284.44 80.0775H314.53V106.937C320.64 88.8075 335.95 77.3875 359.93 77.3875V110.567C358.17 110.397 356.39 110.397 354.63 110.567C333.44 109.437 315.36 125.697 314.23 146.887C314.13 148.727 314.17 150.567 314.33 152.407V212.847H284.45V80.0775H284.44Z" fill="#343B4B"/>
<path d="M363.22 146.967C363.22 106.007 396.39 77.5975 428.16 77.5975C450.46 77.5975 464.63 85.9275 473.29 100.428V80.2775H502.24V212.578H472.69V194.038C462.33 208.078 445.58 215.928 428.17 214.918C391.62 213.728 362.76 183.517 363.22 146.967ZM474.63 146.967C474.63 124.047 456.05 105.467 433.13 105.467C410.21 105.467 391.63 124.047 391.63 146.967C391.63 169.887 410.21 188.467 433.13 188.467C456.05 188.467 474.63 169.887 474.63 146.967Z" fill="#343B4B"/>
<path d="M512.24 146.967C512.24 106.007 545.42 77.5975 577.18 77.5975C599.48 77.5975 613.65 85.9275 622.31 100.428V80.2775H651.46V212.578H621.91V194.038C611.55 208.078 594.8 215.928 577.39 214.928C540.76 213.838 511.78 183.597 512.24 146.967ZM623.65 146.967C623.65 124.047 605.07 105.467 582.15 105.467C559.23 105.467 540.65 124.047 540.65 146.967C540.65 169.887 559.23 188.467 582.15 188.467C605.07 188.467 623.65 169.887 623.65 146.967Z" fill="#343B4B"/>
<path d="M662.94 184.237L688.33 170.807C693.98 183.337 706.94 190.937 720.63 189.747C735.41 189.747 742.05 184.507 742.05 176.317C742.05 150.457 668.78 164.367 668.78 116.477C668.78 91.0874 690.81 77.1974 718.68 77.1974C739.02 76.3974 758.19 86.6775 768.78 104.057L744 117.487C738.73 107.877 728.49 102.057 717.54 102.447C705.32 102.447 698.6 107.217 698.6 115.877C698.6 139.847 771.87 125.887 771.87 175.517C771.87 200.027 751.72 215.077 719.76 215.077C692.76 214.927 673.28 205.997 662.94 184.237Z" fill="#343B4B"/>
<path d="M781.87 146.977C781.87 106.007 815.05 77.6075 846.81 77.6075C869.04 77.6075 883.28 85.9375 891.87 100.438V80.2875H920.88V212.587H891.33V194.047C880.97 208.087 864.22 215.938 846.8 214.938C810.28 213.727 781.41 183.527 781.87 146.977ZM893.28 146.977C893.28 124.057 874.7 105.477 851.78 105.477C828.86 105.477 810.28 124.057 810.28 146.977C810.28 169.897 828.86 188.477 851.78 188.477C874.7 188.467 893.28 169.887 893.28 146.977Z" fill="#343B4B"/>
<path d="M959.54 1.6175L1008.5 124.047C1008.74 124.547 1009.34 124.758 1009.84 124.518C1010.05 124.418 1010.21 124.247 1010.31 124.047L1054.77 47.2875C1055.04 46.7975 1054.87 46.1875 1054.38 45.9175C1054.35 45.8975 1054.33 45.8875 1054.3 45.8775L960.88 0.2775C960.51 -0.0925 959.91 -0.0925 959.54 0.2775C959.17 0.6375 959.17 1.2375 959.54 1.6175Z" fill="#E98C24"/>
<path d="M1060.28 52.9174L1013.87 129.277C1013.6 129.767 1013.78 130.377 1014.26 130.647C1014.47 130.767 1014.71 130.797 1014.94 130.757L1086.8 113.907C1087.31 113.817 1087.65 113.317 1087.55 112.807C1087.53 112.717 1087.5 112.637 1087.47 112.557L1062.02 53.0575C1061.78 52.5475 1061.18 52.3374 1060.68 52.5774C1060.52 52.6474 1060.38 52.7674 1060.28 52.9174Z" fill="#876DA2"/>
<path d="M1014.55 138.888L1059.07 166.758C1059.56 167.028 1060.17 166.878 1060.48 166.418L1086.81 120.347C1087.09 119.867 1086.93 119.247 1086.45 118.967C1086.21 118.827 1085.93 118.798 1085.67 118.868L1014.89 137.068C1014.35 137.198 1014.01 137.737 1014.14 138.277C1014.19 138.527 1014.34 138.738 1014.55 138.888Z" fill="#2DA5BD"/>
<path d="M1007.9 142.167L987.28 192.868C987.05 193.338 987.25 193.898 987.72 194.118C987.96 194.238 988.24 194.248 988.49 194.138L1055.31 172.107C1055.79 171.917 1056.03 171.368 1055.83 170.888C1055.73 170.648 1055.54 170.458 1055.31 170.368L1009.11 141.688C1008.64 141.518 1008.11 141.717 1007.9 142.167Z" fill="#7FB641"/>
<path d="M1267.99 114.438L1152.01 177.098C1151.57 177.368 1150.99 177.228 1150.72 176.788C1150.59 176.578 1150.55 176.327 1150.6 176.087L1165.71 88.7875C1165.8 88.2775 1166.28 87.9375 1166.8 88.0175C1166.84 88.0275 1166.88 88.0375 1166.92 88.0475L1267.65 112.897C1268.15 113.137 1268.36 113.748 1268.11 114.238C1268.09 114.308 1268.04 114.378 1267.99 114.438Z" fill="#E98C24"/>
<path d="M1157.79 89.4575L1144.36 177.837C1144.29 178.387 1143.79 178.778 1143.23 178.708C1142.96 178.668 1142.71 178.527 1142.54 178.297L1098.15 119.337C1097.74 119.017 1097.67 118.428 1097.99 118.018C1098.04 117.968 1098.09 117.907 1098.15 117.857L1155.77 88.4475C1156.05 87.8875 1156.72 87.6675 1157.28 87.9475C1157.84 88.2175 1158.07 88.8975 1157.79 89.4575Z" fill="#876DA2"/>
<path d="M1137.91 184.747L1085.86 178.037C1085.32 177.937 1084.94 177.437 1084.99 176.897L1094.26 124.647C1094.33 124.097 1094.83 123.708 1095.38 123.768C1095.66 123.808 1095.91 123.947 1096.07 124.177L1138.85 183.547C1138.96 184.087 1138.61 184.627 1138.07 184.737C1138.02 184.737 1137.96 184.747 1137.91 184.747Z" fill="#2DA5BD"/>
<path d="M1140.93 191.537L1124.34 243.717C1124.1 244.217 1123.49 244.427 1122.99 244.187C1122.79 244.087 1122.62 243.927 1122.52 243.717L1085.25 183.947C1084.99 183.457 1085.17 182.847 1085.66 182.587C1085.84 182.487 1086.05 182.447 1086.26 182.477L1139.99 189.997C1140.54 189.947 1141.03 190.357 1141.08 190.907C1141.11 191.117 1141.05 191.347 1140.93 191.537Z" fill="#7FB641"/>
</svg>
