<svg width="23" height="17" viewBox="0 0 23 17" fill="none" xmlns="http://www.w3.org/2000/svg">
<path fill-rule="evenodd" clip-rule="evenodd" d="M20.1828 1.34318C21.1286 1.5959 21.8732 2.3406 22.126 3.28634C22.5854 5.00043 22.5854 8.5768 22.5854 8.5768C22.5854 8.5768 22.5854 12.1532 22.126 13.8671C21.8732 14.8128 21.1286 15.5577 20.1828 15.8104C18.4686 16.2696 11.5953 16.2696 11.5953 16.2696C11.5953 16.2696 4.72211 16.2696 3.0078 15.8104C2.06228 15.5577 1.31741 14.8128 1.06464 13.8671C0.605469 12.1532 0.605469 8.5768 0.605469 8.5768C0.605469 8.5768 0.605469 5.00043 1.06464 3.28634C1.31741 2.3406 2.06228 1.5959 3.0078 1.34318C4.72211 0.883789 11.5953 0.883789 11.5953 0.883789C11.5953 0.883789 18.4686 0.883789 20.1828 1.34318ZM15.1079 8.5773L9.39746 11.8743V5.28027L15.1079 8.5773Z" fill="#CBD5E1"/>
</svg>
