<svg width="34" height="25" viewBox="0 0 34 25" fill="none" xmlns="http://www.w3.org/2000/svg">
<path d="M5.49164 0.646687L9.8743 11.7496C9.89578 11.7949 9.94949 11.814 9.99425 11.7922C10.013 11.7832 10.0274 11.7677 10.0363 11.7496L14.0162 4.7884C14.0403 4.74396 14.0251 4.68864 13.9813 4.66416C13.9786 4.66234 13.9768 4.66144 13.9741 4.66053L5.61158 0.525166C5.57846 0.491611 5.52476 0.491611 5.49164 0.525166C5.45852 0.557814 5.45852 0.612226 5.49164 0.646687Z" fill="#94A3B8"/>
<path d="M14.5094 5.29861L10.355 12.2235C10.3308 12.268 10.347 12.3233 10.3899 12.3478C10.4087 12.3586 10.4302 12.3614 10.4508 12.3577L16.8834 10.8297C16.929 10.8215 16.9594 10.7762 16.9505 10.7299C16.9487 10.7217 16.946 10.7145 16.9433 10.7072L14.6652 5.3113C14.6437 5.26505 14.59 5.24601 14.5452 5.26777C14.5309 5.27412 14.5184 5.285 14.5094 5.29861Z" fill="#94A3B8"/>
<path d="M10.4161 13.0952L14.4013 15.6227C14.4452 15.6472 14.4998 15.6336 14.5276 15.5919L16.8845 11.4139C16.9096 11.3703 16.8952 11.3141 16.8523 11.2887C16.8308 11.276 16.8057 11.2733 16.7825 11.2797L10.4466 12.9302C10.3982 12.942 10.3678 12.9909 10.3794 13.0399C10.3839 13.0626 10.3973 13.0816 10.4161 13.0952Z" fill="#94A3B8"/>
<path d="M9.81921 13.3927L7.9734 17.9906C7.95281 18.0332 7.97071 18.084 8.01278 18.104C8.03427 18.1148 8.05933 18.1158 8.08171 18.1058L14.0631 16.1079C14.1061 16.0907 14.1276 16.0408 14.1097 15.9973C14.1007 15.9755 14.0837 15.9583 14.0631 15.9501L9.92751 13.3492C9.88544 13.3338 9.838 13.3519 9.81921 13.3927Z" fill="#94A3B8"/>
<path d="M33.1019 10.8785L22.7199 16.561C22.6805 16.5855 22.6286 16.5728 22.6044 16.5329C22.5928 16.5138 22.5892 16.4911 22.5937 16.4694L23.9462 8.55233C23.9543 8.50608 23.9973 8.47525 24.0438 8.4825C24.0474 8.48341 24.051 8.48432 24.0546 8.48522L33.0714 10.7388C33.1162 10.7606 33.135 10.8159 33.1126 10.8603C33.1108 10.8667 33.1063 10.873 33.1019 10.8785Z" fill="#94A3B8"/>
<path d="M23.2382 8.61279L22.036 16.6278C22.0297 16.6777 21.9849 16.713 21.9348 16.7067C21.9106 16.7031 21.8883 16.6904 21.873 16.6695L17.8995 11.3225C17.8628 11.2935 17.8565 11.24 17.8851 11.2028C17.8896 11.1983 17.8941 11.1929 17.8995 11.1883L23.0573 8.52119C23.0824 8.47041 23.1424 8.45046 23.1925 8.47585C23.2426 8.50034 23.2632 8.56201 23.2382 8.61279Z" fill="#94A3B8"/>
<path d="M21.4583 17.2543L16.799 16.6458C16.7506 16.6367 16.7166 16.5914 16.7211 16.5424L17.5509 11.804C17.5572 11.7541 17.6019 11.7187 17.6512 11.7242C17.6762 11.7278 17.6986 11.7405 17.7129 11.7614L21.5424 17.1455C21.5522 17.1945 21.5209 17.2434 21.4726 17.2534C21.4681 17.2534 21.4627 17.2543 21.4583 17.2543Z" fill="#94A3B8"/>
<path d="M21.7292 17.8704L20.2442 22.6025C20.2227 22.6478 20.1681 22.6669 20.1233 22.6451C20.1054 22.636 20.0902 22.6215 20.0812 22.6025L16.745 17.182C16.7217 17.1376 16.7379 17.0823 16.7817 17.0587C16.7978 17.0496 16.8166 17.046 16.8354 17.0487L21.6451 17.7307C21.6943 17.7262 21.7382 17.7634 21.7426 17.8132C21.7453 17.8323 21.74 17.8531 21.7292 17.8704Z" fill="#94A3B8"/>
</svg>
