<svg width="136" height="41" viewBox="0 0 136 41" fill="none" xmlns="http://www.w3.org/2000/svg">
<g clip-path="url(#clip0_2628_9520)">
<path d="M130.664 0.5H5.66406C2.90264 0.5 0.664062 2.73858 0.664062 5.5V35.5C0.664062 38.2614 2.90264 40.5 5.66406 40.5H130.664C133.425 40.5 135.664 38.2614 135.664 35.5V5.5C135.664 2.73858 133.425 0.5 130.664 0.5Z" fill="black"/>
<path d="M130.664 1.3C131.778 1.3 132.846 1.7425 133.634 2.53015C134.422 3.3178 134.864 4.38609 134.864 5.5V35.5C134.864 36.6139 134.422 37.6822 133.634 38.4698C132.846 39.2575 131.778 39.7 130.664 39.7H5.66406C4.55015 39.7 3.48187 39.2575 2.69421 38.4698C1.90656 37.6822 1.46406 36.6139 1.46406 35.5V5.5C1.46406 4.38609 1.90656 3.3178 2.69421 2.53015C3.48187 1.7425 4.55015 1.3 5.66406 1.3H130.664ZM130.664 0.5H5.66406C4.33798 0.5 3.06621 1.02678 2.12853 1.96447C1.19085 2.90215 0.664063 4.17392 0.664062 5.5L0.664063 35.5C0.664063 36.8261 1.19085 38.0979 2.12853 39.0355C3.06621 39.9732 4.33798 40.5 5.66406 40.5H130.664C131.99 40.5 133.262 39.9732 134.2 39.0355C135.137 38.0979 135.664 36.8261 135.664 35.5V5.5C135.664 4.17392 135.137 2.90215 134.2 1.96447C133.262 1.02678 131.99 0.5 130.664 0.5V0.5Z" fill="#A6A6A6"/>
<path d="M48.0847 10.74C48.1011 11.1067 48.0431 11.473 47.9142 11.8167C47.7853 12.1604 47.5882 12.4745 47.3347 12.74C47.0506 13.0333 46.7078 13.2633 46.3286 13.4149C45.9495 13.5666 45.5427 13.6364 45.1347 13.62C44.7243 13.6291 44.3165 13.554 43.9363 13.3992C43.5562 13.2444 43.2119 13.0132 42.9247 12.72C42.6284 12.4325 42.3946 12.0869 42.2381 11.7049C42.0815 11.3229 42.0054 10.9127 42.0147 10.5C42.004 10.0856 42.0794 9.67346 42.236 9.28964C42.3927 8.90583 42.6271 8.55864 42.9247 8.26997C43.3702 7.83466 43.9344 7.54071 44.5464 7.42506C45.1585 7.30942 45.791 7.37723 46.3647 7.61997C46.7253 7.76821 47.0469 7.99746 47.3047 8.28997L46.7747 8.81997C46.5761 8.58075 46.3244 8.39111 46.0398 8.26613C45.7551 8.14114 45.4452 8.08425 45.1347 8.09997C44.8223 8.09844 44.5129 8.16 44.2249 8.28096C43.9369 8.40193 43.6763 8.5798 43.4587 8.80391C43.2411 9.02803 43.071 9.29378 42.9586 9.58522C42.8463 9.87666 42.7939 10.1878 42.8047 10.5C42.7981 10.9661 42.9298 11.4237 43.183 11.8151C43.4362 12.2065 43.7997 12.5142 44.2276 12.6992C44.6555 12.8843 45.1286 12.9385 45.5872 12.855C46.0458 12.7715 46.4695 12.554 46.8047 12.23C47.113 11.896 47.2936 11.464 47.3147 11.01H45.1347V10.29H48.0447C48.067 10.439 48.0804 10.5893 48.0847 10.74Z" fill="white" stroke="white" stroke-width="0.2" stroke-miterlimit="10"/>
<path d="M52.6636 8.24H49.9636V10.14H52.4236V10.86H49.9636V12.76H52.6636V13.5H49.1836V7.5H52.6636V8.24Z" fill="white" stroke="white" stroke-width="0.2" stroke-miterlimit="10"/>
<path d="M55.9441 13.5H55.1741V8.24H53.4941V7.5H57.6641V8.24H55.9441V13.5Z" fill="white" stroke="white" stroke-width="0.2" stroke-miterlimit="10"/>
<path d="M60.6035 13.5V7.5H61.3735V13.5H60.6035Z" fill="white" stroke="white" stroke-width="0.2" stroke-miterlimit="10"/>
<path d="M64.7937 13.5H64.0238V8.24H62.3438V7.5H66.4638V8.24H64.7937V13.5Z" fill="white" stroke="white" stroke-width="0.2" stroke-miterlimit="10"/>
<path d="M74.2737 12.7201C73.9849 13.0092 73.6419 13.2385 73.2645 13.395C72.887 13.5514 72.4823 13.6319 72.0737 13.6319C71.6651 13.6319 71.2605 13.5514 70.883 13.395C70.5055 13.2385 70.1625 13.0092 69.8737 12.7201C69.5829 12.4301 69.3547 12.0834 69.2033 11.7015C69.0519 11.3196 68.9806 10.9107 68.9937 10.5001C68.9806 10.0896 69.0519 9.68068 69.2033 9.29881C69.3547 8.91694 69.5829 8.57022 69.8737 8.28014C70.1563 7.98294 70.4982 7.74838 70.8771 7.59162C71.2561 7.43487 71.6638 7.35941 72.0737 7.37014C72.4831 7.36367 72.8895 7.44106 73.2679 7.59756C73.6462 7.75407 73.9885 7.98636 74.2737 8.28014C74.5613 8.57263 74.7873 8.91978 74.9384 9.30107C75.0896 9.68237 75.1628 10.0901 75.1537 10.5001C75.1668 10.9107 75.0955 11.3196 74.9441 11.7015C74.7928 12.0834 74.5646 12.4301 74.2737 12.7201V12.7201ZM70.4437 12.2201C70.6567 12.436 70.9105 12.6074 71.1903 12.7244C71.4702 12.8414 71.7704 12.9017 72.0737 12.9017C72.377 12.9017 72.6773 12.8414 72.9571 12.7244C73.2369 12.6074 73.4907 12.436 73.7037 12.2201C73.9252 11.9932 74.0987 11.7239 74.2139 11.4284C74.329 11.1328 74.3833 10.8171 74.3737 10.5001C74.3781 10.1803 74.3175 9.86289 74.1954 9.56721C74.0733 9.27154 73.8925 9.00376 73.6637 8.78014C73.4507 8.56427 73.1969 8.39286 72.9171 8.27586C72.6373 8.15887 72.337 8.09862 72.0337 8.09862C71.7304 8.09862 71.4302 8.15887 71.1504 8.27586C70.8705 8.39286 70.6167 8.56427 70.4037 8.78014C70.1894 9.01038 70.0232 9.28115 69.915 9.57653C69.8068 9.87191 69.7588 10.1859 69.7737 10.5001C69.7641 10.8171 69.8185 11.1328 69.9336 11.4284C70.0487 11.7239 70.2222 11.9932 70.4437 12.2201V12.2201Z" fill="white" stroke="white" stroke-width="0.2" stroke-miterlimit="10"/>
<path d="M76.2441 13.5V7.5H77.1741L80.0941 12.17V11.01V7.5H80.8641V13.5H80.0641L77.0141 8.61V9.76V13.5H76.2441Z" fill="white" stroke="white" stroke-width="0.2" stroke-miterlimit="10"/>
<path d="M68.8042 22.2499C67.9616 22.2519 67.1386 22.5037 66.4391 22.9734C65.7397 23.4432 65.1952 24.1098 64.8746 24.8889C64.554 25.6681 64.4717 26.5248 64.638 27.3508C64.8043 28.1768 65.2118 28.9349 65.809 29.5292C66.4061 30.1236 67.1662 30.5276 67.9929 30.69C68.8196 30.8524 69.676 30.7661 70.4536 30.4418C71.2313 30.1175 71.8953 29.57 72.3618 28.8683C72.8282 28.1667 73.0761 27.3425 73.0742 26.4999C73.0823 25.9379 72.9773 25.3799 72.7653 24.8593C72.5534 24.3386 72.2388 23.866 71.8404 23.4694C71.442 23.0729 70.9679 22.7606 70.4463 22.551C69.9246 22.3415 69.3662 22.2391 68.8042 22.2499V22.2499ZM68.8042 29.0799C68.2877 29.116 67.7724 28.996 67.3251 28.7353C66.8779 28.4747 66.5193 28.0855 66.2962 27.6184C66.073 27.1512 65.9956 26.6278 66.0738 26.1161C66.1521 25.6043 66.3825 25.128 66.7351 24.749C67.0877 24.3699 67.5462 24.1057 68.0509 23.9907C68.5557 23.8757 69.0833 23.9152 69.5653 24.104C70.0474 24.2929 70.4614 24.6223 70.7537 25.0496C71.0459 25.4769 71.2029 25.9822 71.2042 26.4999C71.2203 26.8279 71.1705 27.1559 71.0579 27.4643C70.9453 27.7728 70.772 28.0556 70.5483 28.2961C70.3246 28.5366 70.0551 28.7298 69.7555 28.8644C69.456 28.999 69.1325 29.0723 68.8042 29.0799V29.0799ZM59.4842 22.2499C58.6416 22.2519 57.8186 22.5037 57.1191 22.9734C56.4197 23.4432 55.8752 24.1098 55.5546 24.8889C55.234 25.6681 55.1517 26.5248 55.318 27.3508C55.4843 28.1768 55.8918 28.9349 56.489 29.5292C57.0861 30.1236 57.8462 30.5276 58.6729 30.69C59.4996 30.8524 60.356 30.7661 61.1336 30.4418C61.9113 30.1175 62.5753 29.57 63.0418 28.8683C63.5082 28.1667 63.7561 27.3425 63.7542 26.4999C63.7623 25.9379 63.6573 25.3799 63.4453 24.8593C63.2334 24.3386 62.9188 23.866 62.5204 23.4694C62.122 23.0729 61.6479 22.7606 61.1262 22.551C60.6046 22.3415 60.0462 22.2391 59.4842 22.2499V22.2499ZM59.4842 29.0799C58.9677 29.116 58.4524 28.996 58.0051 28.7353C57.5579 28.4747 57.1993 28.0855 56.9762 27.6184C56.753 27.1512 56.6756 26.6278 56.7538 26.1161C56.8321 25.6043 57.0625 25.128 57.4151 24.749C57.7677 24.3699 58.2262 24.1057 58.7309 23.9907C59.2357 23.8757 59.7633 23.9152 60.2453 24.104C60.7274 24.2929 61.1414 24.6223 61.4337 25.0496C61.7259 25.4769 61.8829 25.9822 61.8842 26.4999C61.9003 26.8279 61.8505 27.1559 61.7379 27.4643C61.6253 27.7728 61.452 28.0556 61.2283 28.2961C61.0046 28.5366 60.7351 28.7298 60.4355 28.8644C60.136 28.999 59.8125 29.0723 59.4842 29.0799V29.0799ZM48.4042 23.5599V25.3599H52.7242C52.6564 26.2077 52.304 27.0077 51.7242 27.6299C51.2908 28.0714 50.7696 28.4171 50.1943 28.6444C49.6189 28.8718 49.0023 28.9759 48.3842 28.9499C47.1111 28.9499 45.8902 28.4442 44.99 27.544C44.0899 26.6439 43.5842 25.423 43.5842 24.1499C43.5842 22.8769 44.0899 21.656 44.99 20.7558C45.8902 19.8556 47.1111 19.3499 48.3842 19.3499C49.6046 19.3318 50.7831 19.7952 51.6642 20.6399L52.9342 19.3699C52.3381 18.7804 51.6305 18.3158 50.8526 18.0033C50.0748 17.6908 49.2424 17.5366 48.4042 17.5499C47.5152 17.5153 46.6283 17.6605 45.7968 17.9769C44.9652 18.2932 44.2061 18.7742 43.5649 19.3909C42.9237 20.0077 42.4136 20.7475 42.0652 21.5661C41.7167 22.3847 41.5371 23.2652 41.5371 24.1549C41.5371 25.0446 41.7167 25.9251 42.0652 26.7437C42.4136 27.5623 42.9237 28.3022 43.5649 28.9189C44.2061 29.5357 44.9652 30.0166 45.7968 30.333C46.6283 30.6493 47.5152 30.7945 48.4042 30.7599C49.2596 30.7941 50.1126 30.6469 50.9071 30.3281C51.7016 30.0092 52.4197 29.5259 53.0142 28.9099C54.0643 27.7563 54.6238 26.2391 54.5742 24.6799C54.5777 24.3046 54.5476 23.9298 54.4842 23.5599H48.4042ZM93.7142 24.9599C93.4534 24.1927 92.9657 23.5227 92.3157 23.0388C91.6657 22.5548 90.884 22.2797 90.0742 22.2499C89.5272 22.2489 88.9857 22.36 88.4834 22.5765C87.981 22.7929 87.5284 23.1101 87.1535 23.5085C86.7786 23.9068 86.4894 24.3778 86.3038 24.8923C86.1181 25.4068 86.04 25.954 86.0742 26.4999C86.0656 27.4128 86.3526 28.3039 86.8923 29.0402C87.432 29.7765 88.1953 30.3184 89.0684 30.5851C89.9415 30.8517 90.8774 30.8288 91.7364 30.5196C92.5953 30.2105 93.3312 29.6318 93.8342 28.8699L92.3842 27.8699C92.168 28.2302 91.8614 28.5277 91.4948 28.7329C91.1282 28.9382 90.7143 29.044 90.2942 29.0399C89.8607 29.0578 89.432 28.9442 89.0644 28.714C88.6967 28.4837 88.4073 28.1477 88.2342 27.7499L93.9242 25.3999L93.7142 24.9599ZM87.9142 26.3799C87.8939 26.0698 87.9359 25.7588 88.0376 25.4651C88.1394 25.1715 88.2988 24.9012 88.5066 24.6701C88.7144 24.439 88.9663 24.2518 89.2476 24.1195C89.5288 23.9873 89.8336 23.9126 90.1442 23.8999C90.4653 23.8794 90.7854 23.9537 91.0645 24.1138C91.3437 24.2738 91.5696 24.5124 91.7142 24.7999L87.9142 26.3799ZM83.2942 30.4999H85.1642V17.9999H83.2942V30.4999ZM80.2342 23.1999H80.1642C79.8802 22.8909 79.5334 22.6462 79.147 22.4823C78.7607 22.3185 78.3437 22.2392 77.9242 22.2499C76.8313 22.3029 75.8008 22.7743 75.0461 23.5665C74.2915 24.3587 73.8705 25.4108 73.8705 26.5049C73.8705 27.599 74.2915 28.6512 75.0461 29.4433C75.8008 30.2355 76.8313 30.7069 77.9242 30.7599C78.3481 30.7684 78.7687 30.6832 79.156 30.5103C79.5432 30.3375 79.8874 30.0812 80.1642 29.7599H80.2342V30.3699C80.2342 31.9999 79.3642 32.8699 77.9642 32.8699C77.4965 32.8596 77.0424 32.7106 76.6596 32.4418C76.2768 32.1729 75.9825 31.7964 75.8142 31.3599L74.1942 32.0299C74.4937 32.7822 75.0144 33.4258 75.6876 33.8758C76.3607 34.3257 77.1546 34.5608 77.9642 34.5499C80.1542 34.5499 81.9642 33.2599 81.9642 30.1199V22.4999H80.2342V23.1999ZM78.0842 29.0799C77.429 29.0391 76.814 28.75 76.3645 28.2716C75.9149 27.7932 75.6647 27.1614 75.6647 26.5049C75.6647 25.8485 75.9149 25.2167 76.3645 24.7383C76.814 24.2598 77.429 23.9708 78.0842 23.9299C78.4044 23.9437 78.7186 24.0218 79.008 24.1596C79.2975 24.2973 79.5562 24.4918 79.769 24.7316C79.9817 24.9714 80.144 25.2515 80.2462 25.5553C80.3485 25.8591 80.3886 26.1803 80.3642 26.4999C80.3914 26.8206 80.3534 27.1435 80.2523 27.4491C80.1513 27.7546 79.9893 28.0365 79.7761 28.2777C79.563 28.5189 79.3032 28.7143 79.0124 28.8522C78.7215 28.9901 78.4058 29.0676 78.0842 29.0799V29.0799ZM102.474 17.9999H97.9942V30.4999H99.8642V25.7599H102.474C103.007 25.7982 103.542 25.7263 104.046 25.5486C104.55 25.371 105.012 25.0915 105.403 24.7274C105.794 24.3634 106.106 23.9227 106.32 23.4328C106.533 22.9428 106.643 22.4142 106.643 21.8799C106.643 21.3456 106.533 20.817 106.32 20.3271C106.106 19.8372 105.794 19.3965 105.403 19.0324C105.012 18.6684 104.55 18.3888 104.046 18.2112C103.542 18.0336 103.007 17.9616 102.474 17.9999V17.9999ZM102.474 23.9999H99.8642V19.7399H102.514C103.082 19.7399 103.626 19.9654 104.027 20.3667C104.429 20.768 104.654 21.3124 104.654 21.8799C104.654 22.4475 104.429 22.9918 104.027 23.3931C103.626 23.7945 103.082 24.0199 102.514 24.0199L102.474 23.9999ZM114.014 22.2099C113.333 22.1679 112.655 22.3265 112.063 22.6659C111.471 23.0054 110.992 23.5109 110.684 24.1199L112.334 24.8099C112.501 24.5093 112.751 24.2634 113.055 24.1019C113.358 23.9405 113.702 23.8703 114.044 23.8999C114.282 23.8722 114.522 23.892 114.752 23.9582C114.981 24.0245 115.196 24.1358 115.382 24.2856C115.568 24.4355 115.722 24.6209 115.836 24.8311C115.95 25.0413 116.021 25.2721 116.044 25.5099V25.6299C115.443 25.3138 114.774 25.1491 114.094 25.1499C112.314 25.1499 110.494 26.1499 110.494 27.9699C110.512 28.3568 110.607 28.7361 110.774 29.0855C110.941 29.4348 111.177 29.747 111.467 30.0035C111.757 30.2601 112.096 30.4557 112.463 30.5787C112.83 30.7018 113.218 30.7498 113.604 30.7199C114.073 30.7459 114.541 30.6466 114.959 30.4322C115.378 30.2178 115.731 29.8961 115.984 29.4999H116.044V30.4999H117.844V25.6899C117.844 23.4999 116.184 22.2299 114.054 22.2299L114.014 22.2099ZM113.784 29.0599C113.174 29.0599 112.324 28.7499 112.324 27.9999C112.324 26.9999 113.384 26.6599 114.324 26.6599C114.918 26.6453 115.505 26.7903 116.024 27.0799C115.961 27.623 115.704 28.1249 115.299 28.4926C114.895 28.8604 114.371 29.069 113.824 29.0799L113.784 29.0599ZM124.404 22.4999L122.264 27.9199H122.204L119.984 22.4999H117.984L121.314 30.0799L119.414 34.2899H121.414L126.484 22.4999H124.404ZM107.604 30.4999H109.464V17.9999H107.604V30.4999Z" fill="white"/>
<path d="M11.1033 8.03973C10.7845 8.43378 10.6272 8.93417 10.6633 9.43973V31.5597C10.6292 32.0701 10.7982 32.5733 11.1333 32.9597L11.2033 33.0397L23.5633 20.6497V20.3497L11.1733 7.96973L11.1033 8.03973Z" fill="url(#paint0_linear_2628_9520)"/>
<path d="M27.6645 24.7797L23.5645 20.6497V20.3497L27.6645 16.2197L27.7545 16.2797L32.6645 19.0597C34.0645 19.8497 34.0645 21.1497 32.6645 21.9497L27.7745 24.7297L27.6645 24.7797Z" fill="url(#paint1_linear_2628_9520)"/>
<path d="M27.7835 24.73L23.5635 20.5L11.1035 32.96C11.3861 33.2115 11.7478 33.3562 12.1259 33.369C12.504 33.3818 12.8746 33.2619 13.1735 33.03L27.7835 24.73" fill="url(#paint2_linear_2628_9520)"/>
<path d="M27.7835 16.2805L13.1735 7.98046C12.8765 7.74537 12.5062 7.62251 12.1276 7.63349C11.749 7.64446 11.3864 7.78857 11.1035 8.04046L23.5635 20.5005L27.7835 16.2805Z" fill="url(#paint3_linear_2628_9520)"/>
<path opacity="0.2" d="M27.6635 24.6299L13.1735 32.8799C12.8855 33.0973 12.5344 33.2149 12.1735 33.2149C11.8126 33.2149 11.4616 33.0973 11.1735 32.8799V32.8799L11.1035 32.9499L11.1735 33.0299C11.4616 33.2473 11.8126 33.3649 12.1735 33.3649C12.5344 33.3649 12.8855 33.2473 13.1735 33.0299L27.7835 24.7299L27.6635 24.6299Z" fill="black"/>
<path opacity="0.12" d="M11.1039 32.8202C10.7827 32.4235 10.6253 31.9191 10.6639 31.4102V31.5602C10.6299 32.0705 10.7988 32.5737 11.1339 32.9602L11.2039 32.8902L11.1039 32.8202Z" fill="black"/>
<path opacity="0.12" d="M32.6641 21.8L27.6641 24.63L27.7541 24.73L32.6641 21.94C32.9539 21.8174 33.2053 21.619 33.3919 21.3656C33.5784 21.1122 33.6932 20.8132 33.7241 20.5C33.6615 20.7846 33.533 21.0505 33.3489 21.2763C33.1648 21.5021 32.9302 21.6815 32.6641 21.8Z" fill="black"/>
<path opacity="0.25" d="M13.1741 8.11998L32.6641 19.2C32.9302 19.3185 33.1648 19.4979 33.3489 19.7237C33.533 19.9495 33.6615 20.2154 33.7241 20.5C33.6932 20.1868 33.5784 19.8878 33.3919 19.6344C33.2053 19.381 32.9539 19.1825 32.6641 19.06L13.1741 7.97998C11.7841 7.17998 10.6641 7.83998 10.6641 9.43998V9.58998C10.6641 7.98998 11.7841 7.32998 13.1741 8.11998Z" fill="white"/>
</g>
<defs>
<linearGradient id="paint0_linear_2628_9520" x1="22.4633" y1="9.20973" x2="5.68327" y2="25.9897" gradientUnits="userSpaceOnUse">
<stop stop-color="#00A0FF"/>
<stop offset="0.01" stop-color="#00A1FF"/>
<stop offset="0.26" stop-color="#00BEFF"/>
<stop offset="0.51" stop-color="#00D2FF"/>
<stop offset="0.76" stop-color="#00DFFF"/>
<stop offset="1" stop-color="#00E3FF"/>
</linearGradient>
<linearGradient id="paint1_linear_2628_9520" x1="34.4945" y1="20.4997" x2="10.3045" y2="20.4997" gradientUnits="userSpaceOnUse">
<stop stop-color="#FFE000"/>
<stop offset="0.41" stop-color="#FFBD00"/>
<stop offset="0.78" stop-color="#FFA500"/>
<stop offset="1" stop-color="#FF9C00"/>
</linearGradient>
<linearGradient id="paint2_linear_2628_9520" x1="25.4935" y1="22.8" x2="2.73351" y2="45.55" gradientUnits="userSpaceOnUse">
<stop stop-color="#FF3A44"/>
<stop offset="1" stop-color="#C31162"/>
</linearGradient>
<linearGradient id="paint3_linear_2628_9520" x1="7.96352" y1="0.680458" x2="18.1235" y2="10.8405" gradientUnits="userSpaceOnUse">
<stop stop-color="#32A071"/>
<stop offset="0.07" stop-color="#2DA771"/>
<stop offset="0.48" stop-color="#15CF74"/>
<stop offset="0.8" stop-color="#06E775"/>
<stop offset="1" stop-color="#00F076"/>
</linearGradient>
<clipPath id="clip0_2628_9520">
<rect width="135" height="40" fill="white" transform="translate(0.664062 0.5)"/>
</clipPath>
</defs>
</svg>
