<svg width="24" height="20" viewBox="0 0 24 20" fill="none" xmlns="http://www.w3.org/2000/svg">
<path d="M23.8293 2.31841C22.9576 2.70392 22.0212 2.9644 21.0367 3.08214C22.0525 2.47553 22.8125 1.52079 23.1748 0.39607C22.2204 0.961822 21.1759 1.36005 20.0867 1.57344C19.3543 0.792901 18.3841 0.275547 17.3268 0.101701C16.2695 -0.0721462 15.1843 0.107241 14.2397 0.612011C13.2951 1.11678 12.5438 1.91869 12.1026 2.89325C11.6614 3.8678 11.5549 4.96046 11.7997 6.0016C9.86594 5.9047 7.97421 5.40307 6.24727 4.52927C4.52034 3.65547 2.99679 2.42903 1.77551 0.929534C1.35793 1.64846 1.11781 2.482 1.11781 3.36971C1.11735 4.16886 1.31453 4.95577 1.69187 5.66062C2.06921 6.36546 2.61503 6.96646 3.28092 7.41028C2.50867 7.38576 1.75346 7.1775 1.07814 6.80284V6.86535C1.07807 7.98619 1.46653 9.07254 2.17763 9.94006C2.88873 10.8076 3.87866 11.4028 4.97945 11.6248C4.26307 11.8183 3.51199 11.8469 2.78294 11.7082C3.09352 12.6726 3.6985 13.516 4.51318 14.1202C5.32787 14.7244 6.31147 15.0592 7.32629 15.0778C5.60357 16.4275 3.47602 17.1596 1.28589 17.1564C0.897934 17.1565 0.510304 17.1339 0.125 17.0887C2.34811 18.5153 4.93596 19.2724 7.57893 19.2694C16.5257 19.2694 21.4167 11.8739 21.4167 5.4598C21.4167 5.25142 21.4115 5.04095 21.4021 4.83257C22.3535 4.14592 23.1747 3.29563 23.8273 2.32154L23.8293 2.31841V2.31841Z" fill="#CBD5E1"/>
</svg>
