<svg width="120" height="41" viewBox="0 0 120 41" fill="none" xmlns="http://www.w3.org/2000/svg">
<g clip-path="url(#clip0_2628_9485)">
<path d="M110.135 0.50013H9.53468C9.16798 0.50013 8.80568 0.50013 8.43995 0.50213C8.1338 0.50413 7.83009 0.50994 7.521 0.51483C6.84951 0.522732 6.17961 0.581806 5.5171 0.69154C4.85552 0.803663 4.21467 1.01505 3.61622 1.31854C3.0185 1.6246 2.47235 2.0223 1.99757 2.4972C1.5203 2.97077 1.12246 3.51815 0.81935 4.11829C0.5154 4.71724 0.304641 5.35907 0.19435 6.02161C0.0830109 6.68332 0.0230984 7.35265 0.01515 8.02361C0.00587 8.33021 0.00489 8.63783 0 8.94447V32.0587C0.00489 32.3692 0.00587 32.67 0.01515 32.9806C0.0231008 33.6516 0.0830134 34.3209 0.19435 34.9825C0.304336 35.6455 0.515108 36.2877 0.81935 36.8868C1.12233 37.485 1.52022 38.0302 1.99757 38.5011C2.47054 38.9781 3.01705 39.3761 3.61622 39.6798C4.21467 39.9841 4.85545 40.1968 5.5171 40.3106C6.17972 40.4195 6.84956 40.4786 7.521 40.4874C7.83009 40.4942 8.1338 40.4981 8.43995 40.4981C8.80567 40.5001 9.168 40.5001 9.53468 40.5001H110.135C110.494 40.5001 110.859 40.5001 111.219 40.4981C111.523 40.4981 111.836 40.4942 112.141 40.4874C112.811 40.4791 113.479 40.42 114.141 40.3106C114.804 40.196 115.448 39.9834 116.049 39.6798C116.647 39.3759 117.193 38.978 117.666 38.5011C118.142 38.0284 118.541 37.4836 118.848 36.8868C119.15 36.2872 119.358 35.6451 119.467 34.9825C119.578 34.3208 119.64 33.6516 119.652 32.9806C119.656 32.67 119.656 32.3692 119.656 32.0587C119.664 31.6954 119.664 31.3341 119.664 30.9649V10.0363C119.664 9.67005 119.664 9.30677 119.656 8.94447C119.656 8.63783 119.656 8.33021 119.652 8.02357C119.64 7.35255 119.578 6.68337 119.467 6.02157C119.358 5.35941 119.149 4.71763 118.848 4.11825C118.23 2.91533 117.252 1.93616 116.049 1.31845C115.448 1.0157 114.804 0.80437 114.141 0.69145C113.48 0.581233 112.811 0.522138 112.141 0.51469C111.836 0.50981 111.523 0.50395 111.219 0.502C110.859 0.5 110.494 0.5 110.135 0.5V0.50013Z" fill="#A6A6A6"/>
<path d="M8.44487 39.625C8.14019 39.625 7.84287 39.6211 7.54058 39.6143C6.91436 39.6061 6.2896 39.5516 5.67144 39.4512C5.09503 39.3519 4.53664 39.1673 4.0147 38.9033C3.49754 38.6415 3.02585 38.2983 2.6177 37.8867C2.20364 37.48 1.85891 37.0082 1.59719 36.4902C1.33258 35.9688 1.14945 35.4099 1.05419 34.833C0.951311 34.2131 0.895651 33.5863 0.887687 32.958C0.881347 32.7471 0.873047 32.0449 0.873047 32.0449V8.94434C0.873047 8.94434 0.881887 8.25293 0.887737 8.0498C0.895363 7.42248 0.950699 6.79665 1.05327 6.17773C1.14871 5.59925 1.33197 5.03875 1.59673 4.51563C1.85749 3.99794 2.2003 3.52586 2.61187 3.11768C3.02297 2.70562 3.49617 2.3606 4.01421 2.09521C4.53495 1.83209 5.09228 1.64873 5.66753 1.55127C6.28772 1.44984 6.91465 1.395 7.54304 1.38721L8.44536 1.375H111.214L112.127 1.3877C112.75 1.3951 113.371 1.44945 113.985 1.55029C114.566 1.64898 115.13 1.83362 115.656 2.09814C116.694 2.63299 117.539 3.47916 118.071 4.51807C118.332 5.03758 118.512 5.59351 118.607 6.16699C118.71 6.79099 118.768 7.42174 118.78 8.0542C118.783 8.3374 118.783 8.6416 118.783 8.94434C118.791 9.31934 118.791 9.67627 118.791 10.0361V30.9648C118.791 31.3281 118.791 31.6826 118.783 32.04C118.783 32.3652 118.783 32.6631 118.779 32.9697C118.768 33.5909 118.711 34.2104 118.608 34.8232C118.515 35.4043 118.333 35.9675 118.068 36.4932C117.805 37.0056 117.462 37.4733 117.053 37.8789C116.644 38.2927 116.172 38.6379 115.653 38.9014C115.128 39.1674 114.566 39.3527 113.985 39.4512C113.367 39.5522 112.742 39.6067 112.116 39.6143C111.823 39.6211 111.517 39.625 111.219 39.625L110.135 39.627L8.44487 39.625Z" fill="black"/>
<path d="M24.768 20.8013C24.7788 19.9666 25.0005 19.1483 25.4125 18.4223C25.8245 17.6964 26.4135 17.0864 27.1246 16.6492C26.6728 16.0041 26.0769 15.4731 25.3841 15.0986C24.6912 14.724 23.9206 14.5162 23.1334 14.4916C21.4542 14.3153 19.8262 15.4964 18.9705 15.4964C18.0982 15.4964 16.7807 14.5091 15.362 14.5383C14.4443 14.5679 13.55 14.8348 12.7661 15.3128C11.9822 15.7909 11.3356 16.4638 10.8891 17.2661C8.9551 20.6145 10.3977 25.5356 12.2503 28.2422C13.1772 29.5676 14.2605 31.048 15.6779 30.9955C17.065 30.938 17.583 30.111 19.2573 30.111C20.9161 30.111 21.4021 30.9955 22.8483 30.9621C24.3367 30.938 25.2745 29.6309 26.1688 28.293C26.8348 27.3486 27.3473 26.3049 27.6873 25.2005C26.8225 24.8347 26.0846 24.2226 25.5655 23.4403C25.0464 22.658 24.769 21.7402 24.768 20.8013V20.8013Z" fill="white"/>
<path d="M22.0356 12.7113C22.8471 11.7371 23.247 10.4849 23.1501 9.2207C21.9103 9.35092 20.765 9.94348 19.9426 10.8803C19.5404 11.338 19.2324 11.8704 19.0362 12.4472C18.8399 13.024 18.7593 13.6337 18.7988 14.2417C19.419 14.2481 20.0325 14.1137 20.5932 13.8486C21.1538 13.5835 21.647 13.1947 22.0356 12.7113Z" fill="white"/>
<path d="M42.3008 27.6397H37.5674L36.4307 30.9961H34.4258L38.9092 18.5781H40.9922L45.4756 30.9961H43.4365L42.3008 27.6397ZM38.0576 26.0908H41.8096L39.96 20.6436H39.9082L38.0576 26.0908Z" fill="white"/>
<path d="M55.1573 26.4695C55.1573 29.2829 53.6514 31.0905 51.3789 31.0905C50.8033 31.1207 50.2308 30.9881 49.727 30.7079C49.2232 30.4278 48.8085 30.0114 48.5303 29.5065H48.4873V33.9909H46.6289V21.9421H48.4278V23.448H48.4619C48.7529 22.9455 49.1746 22.5313 49.6823 22.2495C50.1899 21.9676 50.7644 21.8287 51.3448 21.8474C53.6426 21.8474 55.1573 23.6638 55.1573 26.4695ZM53.2471 26.4695C53.2471 24.6365 52.2998 23.4314 50.8545 23.4314C49.4346 23.4314 48.4795 24.6618 48.4795 26.4695C48.4795 28.2937 49.4346 29.5154 50.8545 29.5154C52.2998 29.5154 53.2471 28.3191 53.2471 26.4695Z" fill="white"/>
<path d="M65.1221 26.4694C65.1221 29.2829 63.6162 31.0905 61.3438 31.0905C60.7681 31.1206 60.1956 30.988 59.6918 30.7079C59.188 30.4278 58.7733 30.0114 58.4952 29.5065H58.4521V33.9909H56.5938V21.9421H58.3926V23.448H58.4268C58.7177 22.9455 59.1394 22.5313 59.6471 22.2495C60.1547 21.9676 60.7292 21.8287 61.3096 21.8474C63.6075 21.8474 65.1221 23.6638 65.1221 26.4694ZM63.2119 26.4694C63.2119 24.6364 62.2647 23.4314 60.8194 23.4314C59.3994 23.4314 58.4444 24.6618 58.4444 26.4694C58.4444 28.2937 59.3994 29.5153 60.8194 29.5153C62.2647 29.5153 63.2119 28.3191 63.2119 26.4694H63.2119Z" fill="white"/>
<path d="M71.709 27.5362C71.8467 28.7676 73.043 29.5762 74.6778 29.5762C76.2442 29.5762 77.3711 28.7676 77.3711 27.6572C77.3711 26.6934 76.6914 26.1162 75.0821 25.7207L73.4727 25.333C71.1924 24.7822 70.1338 23.7158 70.1338 21.9854C70.1338 19.8428 72.001 18.3711 74.6524 18.3711C77.2764 18.3711 79.0752 19.8428 79.1358 21.9854H77.2598C77.1475 20.7461 76.1231 19.9981 74.626 19.9981C73.1289 19.9981 72.1045 20.7549 72.1045 21.8565C72.1045 22.7344 72.7588 23.251 74.3594 23.6465L75.7275 23.9824C78.2754 24.5849 79.334 25.6084 79.334 27.4248C79.334 29.748 77.4834 31.2031 74.54 31.2031C71.7861 31.2031 69.9268 29.7822 69.8066 27.5361L71.709 27.5362Z" fill="white"/>
<path d="M83.3437 19.7998V21.9424H85.0654V23.4141H83.3437V28.4053C83.3437 29.1807 83.6885 29.542 84.4453 29.542C84.6497 29.5384 84.8538 29.5241 85.0566 29.499V30.9619C84.7164 31.0255 84.3705 31.0543 84.0244 31.0478C82.1914 31.0478 81.4766 30.3593 81.4766 28.6035V23.4141H80.1602V21.9424H81.4765V19.7998H83.3437Z" fill="white"/>
<path d="M86.0645 26.4697C86.0645 23.6211 87.7422 21.8311 90.3584 21.8311C92.9834 21.8311 94.6533 23.6211 94.6533 26.4697C94.6533 29.3262 92.9922 31.1084 90.3584 31.1084C87.7255 31.1084 86.0645 29.3262 86.0645 26.4697ZM92.7598 26.4697C92.7598 24.5156 91.8643 23.3623 90.3584 23.3623C88.8525 23.3623 87.958 24.5244 87.958 26.4697C87.958 28.4316 88.8525 29.5762 90.3584 29.5762C91.8643 29.5762 92.7597 28.4316 92.7597 26.4697H92.7598Z" fill="white"/>
<path d="M96.1836 21.942H97.9561V23.483H97.9991C98.119 23.0017 98.4009 22.5764 98.7975 22.2785C99.1941 21.9806 99.6812 21.8284 100.177 21.8473C100.391 21.8465 100.605 21.8698 100.814 21.9166V23.6549C100.543 23.5723 100.261 23.5343 99.9785 23.5426C99.7085 23.5316 99.4394 23.5792 99.1895 23.6821C98.9397 23.785 98.7151 23.9408 98.5311 24.1386C98.3471 24.3365 98.2082 24.5719 98.1237 24.8286C98.0393 25.0852 98.0114 25.3571 98.042 25.6256V30.9957H96.1836L96.1836 21.942Z" fill="white"/>
<path d="M109.382 28.3369C109.132 29.9805 107.531 31.1084 105.483 31.1084C102.85 31.1084 101.215 29.3437 101.215 26.5127C101.215 23.6729 102.858 21.8311 105.405 21.8311C107.91 21.8311 109.485 23.5518 109.485 26.2969V26.9336H103.091V27.0459C103.061 27.3791 103.103 27.7148 103.213 28.0306C103.323 28.3464 103.5 28.6352 103.73 28.8778C103.96 29.1203 104.24 29.3111 104.549 29.4374C104.859 29.5637 105.192 29.6226 105.526 29.6103C105.966 29.6515 106.406 29.5498 106.783 29.3203C107.16 29.0909 107.452 28.746 107.617 28.3369L109.382 28.3369ZM103.1 25.6348H107.626C107.643 25.3352 107.597 25.0354 107.493 24.7541C107.388 24.4729 107.226 24.2164 107.018 24.0006C106.809 23.7849 106.558 23.6145 106.281 23.5003C106.003 23.3861 105.705 23.3305 105.405 23.3369C105.103 23.3351 104.803 23.3933 104.523 23.508C104.243 23.6227 103.988 23.7918 103.774 24.0054C103.559 24.2191 103.389 24.473 103.274 24.7527C103.158 25.0323 103.099 25.3321 103.1 25.6348V25.6348Z" fill="white"/>
<path d="M37.8271 9.23138C38.2168 9.20342 38.6077 9.26228 38.9718 9.40371C39.3359 9.54515 39.6641 9.76563 39.9327 10.0493C40.2013 10.3329 40.4036 10.6726 40.525 11.0438C40.6464 11.4151 40.6839 11.8087 40.6348 12.1962C40.6348 14.1025 39.6045 15.1982 37.8271 15.1982H35.6719V9.23138H37.8271ZM36.5986 14.3544H37.7236C38.002 14.371 38.2806 14.3254 38.5392 14.2208C38.7977 14.1161 39.0297 13.9552 39.2182 13.7496C39.4067 13.5441 39.5469 13.2991 39.6288 13.0324C39.7107 12.7658 39.7321 12.4843 39.6914 12.2084C39.7291 11.9335 39.7056 11.6538 39.6224 11.3891C39.5393 11.1244 39.3987 10.8814 39.2106 10.6775C39.0226 10.4736 38.7917 10.3138 38.5346 10.2095C38.2776 10.1053 38.0006 10.0592 37.7236 10.0746H36.5986V14.3544Z" fill="white"/>
<path d="M41.6819 12.9448C41.6536 12.6489 41.6875 12.3503 41.7813 12.0682C41.8751 11.7862 42.0269 11.5268 42.2268 11.3068C42.4268 11.0868 42.6705 10.9111 42.9423 10.7908C43.2142 10.6705 43.5082 10.6084 43.8055 10.6084C44.1027 10.6084 44.3967 10.6705 44.6686 10.7908C44.9404 10.9111 45.1841 11.0868 45.3841 11.3068C45.584 11.5268 45.7358 11.7862 45.8296 12.0682C45.9234 12.3503 45.9573 12.6489 45.929 12.9448C45.9578 13.241 45.9244 13.54 45.8308 13.8225C45.7372 14.105 45.5855 14.3648 45.3855 14.5853C45.1856 14.8057 44.9417 14.9818 44.6695 15.1023C44.3974 15.2229 44.1031 15.2851 43.8055 15.2851C43.5078 15.2851 43.2135 15.2229 42.9414 15.1023C42.6693 14.9818 42.4254 14.8057 42.2254 14.5853C42.0254 14.3648 41.8737 14.105 41.7801 13.8225C41.6865 13.54 41.6531 13.241 41.6819 12.9448V12.9448ZM45.0149 12.9448C45.0149 11.9687 44.5764 11.3979 43.8069 11.3979C43.0345 11.3979 42.5999 11.9687 42.5999 12.9448C42.5999 13.9287 43.0345 14.4951 43.8069 14.4951C44.5765 14.4951 45.0149 13.9248 45.0149 12.9448H45.0149Z" fill="white"/>
<path d="M51.5742 15.1982H50.6523L49.7217 11.8818H49.6514L48.7246 15.1982H47.8115L46.5703 10.6953H47.4717L48.2783 14.1313H48.3447L49.2705 10.6953H50.1231L51.0488 14.1313H51.1191L51.9219 10.6953H52.8105L51.5742 15.1982Z" fill="white"/>
<path d="M53.8535 10.6949H54.709V11.4102H54.7754C54.888 11.1533 55.0781 10.9379 55.3189 10.7941C55.5598 10.6503 55.8395 10.5852 56.1191 10.6079C56.3382 10.5915 56.5582 10.6245 56.7628 10.7046C56.9674 10.7847 57.1514 10.9098 57.3011 11.0707C57.4508 11.2315 57.5623 11.424 57.6275 11.6338C57.6927 11.8436 57.7099 12.0654 57.6777 12.2827V15.1977H56.7891V12.5059C56.7891 11.7823 56.4746 11.4224 55.8174 11.4224C55.6686 11.4155 55.5201 11.4408 55.3821 11.4966C55.244 11.5525 55.1197 11.6375 55.0175 11.7459C54.9154 11.8543 54.8379 11.9834 54.7904 12.1246C54.7429 12.2657 54.7264 12.4154 54.7422 12.5635V15.1978H53.8535L53.8535 10.6949Z" fill="white"/>
<path d="M59.0938 8.9375H59.9824V15.1982H59.0938V8.9375Z" fill="white"/>
<path d="M61.219 12.9449C61.1907 12.6489 61.2246 12.3503 61.3185 12.0683C61.4123 11.7862 61.5641 11.5268 61.7641 11.3068C61.964 11.0869 62.2078 10.9111 62.4796 10.7908C62.7515 10.6705 63.0455 10.6084 63.3428 10.6084C63.6401 10.6084 63.9341 10.6705 64.206 10.7908C64.4778 10.9111 64.7216 11.0869 64.9215 11.3068C65.1215 11.5268 65.2733 11.7862 65.3671 12.0683C65.461 12.3503 65.4949 12.6489 65.4666 12.9449C65.4954 13.2411 65.4619 13.5401 65.3683 13.8226C65.2747 14.1051 65.123 14.3649 64.9229 14.5853C64.7229 14.8058 64.479 14.9819 64.2069 15.1024C63.9348 15.2229 63.6404 15.2852 63.3428 15.2852C63.0452 15.2852 62.7508 15.2229 62.4787 15.1024C62.2065 14.9819 61.9626 14.8058 61.7626 14.5853C61.5626 14.3649 61.4109 14.1051 61.3173 13.8226C61.2237 13.5401 61.1902 13.2411 61.219 12.9449V12.9449ZM64.552 12.9449C64.552 11.9688 64.1135 11.398 63.344 11.398C62.5715 11.398 62.137 11.9688 62.137 12.9449C62.137 13.9288 62.5716 14.4952 63.344 14.4952C64.1135 14.4952 64.552 13.9248 64.552 12.9449H64.552Z" fill="white"/>
<path d="M66.4023 13.9248C66.4023 13.1142 67.0059 12.647 68.0771 12.5806L69.2969 12.5102V12.1216C69.2969 11.646 68.9824 11.3774 68.375 11.3774C67.8789 11.3774 67.5352 11.5596 67.4365 11.8779H66.5762C66.667 11.1045 67.3945 10.6084 68.416 10.6084C69.5449 10.6084 70.1816 11.1704 70.1816 12.1216V15.1982H69.3262V14.5654H69.2559C69.1131 14.7924 68.9127 14.9775 68.6751 15.1017C68.4375 15.2259 68.1712 15.2848 67.9033 15.2724C67.7143 15.2921 67.5232 15.2719 67.3425 15.2132C67.1617 15.1545 66.9953 15.0586 66.8538 14.9316C66.7124 14.8047 66.5992 14.6495 66.5214 14.4761C66.4437 14.3026 66.4031 14.1149 66.4023 13.9248V13.9248ZM69.2969 13.54V13.1636L68.1973 13.2339C67.5771 13.2754 67.2959 13.4863 67.2959 13.8833C67.2959 14.2886 67.6474 14.5244 68.1309 14.5244C68.2725 14.5387 68.4156 14.5244 68.5516 14.4823C68.6876 14.4403 68.8138 14.3712 68.9226 14.2794C69.0313 14.1876 69.1205 14.0748 69.1849 13.9477C69.2492 13.8207 69.2873 13.6821 69.2969 13.54V13.54Z" fill="white"/>
<path d="M71.3496 12.9448C71.3496 11.522 72.0811 10.6206 73.2188 10.6206C73.5002 10.6077 73.7795 10.6751 74.024 10.815C74.2685 10.9548 74.4682 11.1615 74.5996 11.4106H74.666V8.9375H75.5547V15.1982H74.7031V14.4868H74.6328C74.4912 14.7343 74.2846 14.9383 74.0353 15.0768C73.7861 15.2153 73.5037 15.283 73.2188 15.2725C72.0732 15.2725 71.3496 14.3711 71.3496 12.9448ZM72.2676 12.9448C72.2676 13.8999 72.7178 14.4746 73.4707 14.4746C74.2197 14.4746 74.6826 13.8916 74.6826 12.9488C74.6826 12.0103 74.2149 11.419 73.4707 11.419C72.7227 11.419 72.2676 11.9976 72.2676 12.9448H72.2676Z" fill="white"/>
<path d="M79.2307 12.9448C79.2024 12.6489 79.2363 12.3503 79.3301 12.0682C79.424 11.7862 79.5757 11.5268 79.7757 11.3068C79.9756 11.0868 80.2193 10.9111 80.4912 10.7908C80.763 10.6705 81.057 10.6084 81.3543 10.6084C81.6516 10.6084 81.9455 10.6705 82.2174 10.7908C82.4892 10.9111 82.7329 11.0868 82.9329 11.3068C83.1328 11.5268 83.2846 11.7862 83.3784 12.0682C83.4723 12.3503 83.5061 12.6489 83.4778 12.9448C83.5067 13.241 83.4732 13.54 83.3796 13.8225C83.286 14.105 83.1344 14.3648 82.9344 14.5853C82.7344 14.8057 82.4905 14.9818 82.2184 15.1023C81.9462 15.2229 81.6519 15.2851 81.3543 15.2851C81.0567 15.2851 80.7623 15.2229 80.4902 15.1023C80.2181 14.9818 79.9742 14.8057 79.7742 14.5853C79.5742 14.3648 79.4225 14.105 79.3289 13.8225C79.2353 13.54 79.2019 13.241 79.2307 12.9448V12.9448ZM82.5637 12.9448C82.5637 11.9687 82.1253 11.3979 81.3557 11.3979C80.5833 11.3979 80.1487 11.9687 80.1487 12.9448C80.1487 13.9287 80.5833 14.4951 81.3557 14.4951C82.1253 14.4951 82.5637 13.9248 82.5637 12.9448Z" fill="white"/>
<path d="M84.6699 10.6949H85.5254V11.4102H85.5918C85.7045 11.1533 85.8945 10.9379 86.1353 10.7941C86.3762 10.6503 86.6559 10.5852 86.9356 10.6079C87.1547 10.5915 87.3747 10.6245 87.5792 10.7046C87.7838 10.7847 87.9678 10.9098 88.1175 11.0707C88.2672 11.2315 88.3787 11.424 88.444 11.6338C88.5092 11.8436 88.5263 12.0654 88.4941 12.2827V15.1977H87.6055V12.5059C87.6055 11.7823 87.291 11.4224 86.6338 11.4224C86.485 11.4155 86.3365 11.4408 86.1985 11.4966C86.0604 11.5525 85.9361 11.6375 85.8339 11.7459C85.7318 11.8543 85.6543 11.9834 85.6068 12.1246C85.5593 12.2657 85.5428 12.4154 85.5586 12.5635V15.1978H84.6699V10.6949Z" fill="white"/>
<path d="M93.5166 9.57422V10.7158H94.4922V11.4644H93.5166V13.7798C93.5166 14.2515 93.7109 14.458 94.1533 14.458C94.2666 14.4576 94.3797 14.4508 94.4922 14.4375V15.1777C94.3326 15.2063 94.1709 15.2215 94.0088 15.2231C93.0205 15.2231 92.627 14.8755 92.627 14.0073V11.4643H91.9121V10.7158H92.627V9.57422H93.5166Z" fill="white"/>
<path d="M95.7051 8.9375H96.5859V11.419H96.6562C96.7744 11.1596 96.9696 10.943 97.2153 10.7987C97.461 10.6543 97.7452 10.5893 98.0292 10.6123C98.2472 10.6004 98.4651 10.6368 98.6674 10.7189C98.8697 10.8009 99.0513 10.9266 99.1995 11.0869C99.3476 11.2473 99.4585 11.4383 99.5243 11.6465C99.5901 11.8546 99.6091 12.0747 99.58 12.291V15.1983H98.6905V12.5103C98.6905 11.791 98.3555 11.4268 97.7276 11.4268C97.5748 11.4142 97.4212 11.4352 97.2774 11.4883C97.1337 11.5413 97.0032 11.6252 96.8952 11.7339C96.7872 11.8426 96.7043 11.9737 96.6522 12.1178C96.6002 12.2619 96.5802 12.4157 96.5938 12.5684V15.1982H95.7051L95.7051 8.9375Z" fill="white"/>
<path d="M104.761 13.9825C104.641 14.394 104.379 14.75 104.022 14.9882C103.666 15.2263 103.237 15.3315 102.81 15.2852C102.514 15.2931 102.219 15.2362 101.946 15.1187C101.674 15.0012 101.43 14.8258 101.232 14.6046C101.034 14.3835 100.887 14.1219 100.8 13.8381C100.713 13.5543 100.69 13.255 100.73 12.961C100.691 12.6661 100.715 12.3662 100.801 12.0815C100.888 11.7969 101.035 11.5341 101.231 11.311C101.428 11.0879 101.671 10.9098 101.943 10.7886C102.214 10.6674 102.509 10.6059 102.806 10.6085C104.059 10.6085 104.815 11.4645 104.815 12.8785V13.1886H101.635V13.2384C101.621 13.4036 101.642 13.5699 101.696 13.7267C101.751 13.8834 101.837 14.0271 101.95 14.1486C102.063 14.2701 102.2 14.3666 102.352 14.432C102.504 14.4974 102.669 14.5302 102.835 14.5284C103.047 14.5539 103.263 14.5156 103.453 14.4184C103.644 14.3212 103.802 14.1694 103.906 13.9825L104.761 13.9825ZM101.635 12.5313H103.91C103.921 12.3802 103.9 12.2284 103.849 12.0857C103.799 11.943 103.718 11.8125 103.614 11.7026C103.51 11.5928 103.383 11.506 103.243 11.4478C103.103 11.3896 102.953 11.3613 102.801 11.3648C102.648 11.3629 102.495 11.3917 102.353 11.4497C102.21 11.5076 102.081 11.5935 101.972 11.7022C101.864 11.8109 101.778 11.9403 101.72 12.0827C101.662 12.2251 101.633 12.3776 101.635 12.5313H101.635Z" fill="white"/>
</g>
<defs>
<clipPath id="clip0_2628_9485">
<rect width="119.664" height="40" fill="white" transform="translate(0 0.5)"/>
</clipPath>
</defs>
</svg>
