<svg width="23" height="22" viewBox="0 0 23 22" fill="none" xmlns="http://www.w3.org/2000/svg">
<path d="M5.56811 21.2699H0.843751V7.09684H5.56811V21.2699ZM3.20593 5.22339C2.73874 5.22339 2.28203 5.08485 1.89357 4.82529C1.50512 4.56573 1.20235 4.19681 1.02356 3.76517C0.844773 3.33354 0.797994 2.85859 0.88914 2.40037C0.980285 1.94215 1.20526 1.52125 1.53562 1.19089C1.86597 0.860534 2.28688 0.635558 2.74509 0.544413C3.20331 0.453268 3.67827 0.500047 4.1099 0.678835C4.54153 0.857623 4.91045 1.16039 5.17001 1.54885C5.42957 1.93731 5.56811 2.39401 5.56811 2.86121C5.56811 3.4877 5.31924 4.08853 4.87625 4.53152C4.43325 4.97451 3.83242 5.22339 3.20593 5.22339V5.22339ZM22.565 21.2699H18.0307V14.3734C18.0307 12.7444 18.0307 10.6265 15.6685 10.6265C13.3063 10.6265 12.9533 12.4185 12.9533 14.2648V21.2699H8.39187V7.09684H12.7633V9.0246C13.2158 8.28299 13.8619 7.67877 14.6321 7.27691C15.4023 6.87505 16.2675 6.69077 17.1347 6.74387C21.7504 6.74387 22.565 9.67623 22.565 13.5046V21.2699Z" fill="#CBD5E1"/>
</svg>
