<svg width="156" height="30" viewBox="0 0 156 30" fill="none" xmlns="http://www.w3.org/2000/svg">
<path d="M0 22.559L2.56542 20.1507C3.97279 21.9572 6.15629 22.9851 8.44908 22.9212C10.9249 22.9212 12.8308 21.9977 12.8308 20.1176C12.8308 14.9634 0.826485 17.2893 0.826485 9.62743C0.826485 5.5613 4.3805 3.54114 8.65663 3.54114C11.6592 3.45394 14.5268 4.7864 16.3947 7.13691L13.9201 9.61146C12.6601 7.98059 10.7112 7.0313 8.64803 7.04604C6.35278 7.04604 4.57945 7.87129 4.57945 9.68515C4.57945 13.9564 16.6255 12.0443 16.6255 19.8781C16.6255 24.3568 12.8234 26.4102 8.54978 26.4102C4.68384 26.3942 1.91332 25.1993 0 22.559Z" fill="white"/>
<path d="M18.2383 19.7567V9.85977H21.7591V19.2115C21.7591 21.7425 23.1616 23.2113 25.5195 23.2113C27.8786 23.2113 29.6924 21.7106 29.6924 18.5925V9.83398H33.2145V26.0813H29.6924V23.7553C28.7358 25.5041 26.9539 26.4607 24.5297 26.4607C20.7288 26.4607 18.2383 23.7971 18.2383 19.7567Z" fill="white"/>
<path d="M34.9316 9.83328H38.6269V13.1319C39.3772 10.9054 41.2574 9.50293 44.2023 9.50293V13.5777C43.9862 13.5568 43.7676 13.5568 43.5514 13.5777C40.9492 13.4389 38.7288 15.4357 38.59 18.038C38.5778 18.2639 38.5827 18.4899 38.6023 18.7159V26.1383H34.9329V9.83328H34.9316Z" fill="white"/>
<path d="M44.6061 18.0484C44.6061 13.0182 48.6796 9.5293 52.5812 9.5293C55.3198 9.5293 57.0599 10.5523 58.1234 12.333V9.85842H61.6787V26.1057H58.0498V23.8289C56.7775 25.5531 54.7205 26.5171 52.5824 26.3931C48.0938 26.2469 44.5496 22.537 44.6061 18.0484ZM58.288 18.0484C58.288 15.2337 56.0063 12.9519 53.1915 12.9519C50.3768 12.9519 48.0951 15.2337 48.0951 18.0484C48.0951 20.8631 50.3768 23.1448 53.1915 23.1448C56.0063 23.1448 58.288 20.8631 58.288 18.0484Z" fill="white"/>
<path d="M62.9069 18.0484C62.9069 13.0182 66.9816 9.5293 70.882 9.5293C73.6206 9.5293 75.3607 10.5523 76.4242 12.333V9.85842H80.004V26.1057H76.3751V23.8289C75.1028 25.5531 73.0458 26.5171 70.9078 26.3943C66.4094 26.2604 62.8504 22.5468 62.9069 18.0484ZM76.5888 18.0484C76.5888 15.2337 74.307 12.9519 71.4923 12.9519C68.6776 12.9519 66.3958 15.2337 66.3958 18.0484C66.3958 20.8631 68.6776 23.1448 71.4923 23.1448C74.307 23.1448 76.5888 20.8631 76.5888 18.0484Z" fill="white"/>
<path d="M81.4141 22.6252L84.5321 20.9759C85.226 22.5146 86.8175 23.448 88.4988 23.3018C90.3139 23.3018 91.1293 22.6583 91.1293 21.6525C91.1293 18.4768 82.1312 20.185 82.1312 14.3038C82.1312 11.1857 84.8367 9.47995 88.2593 9.47995C90.7572 9.38171 93.1114 10.6442 94.4119 12.7785L91.3688 14.4278C90.7216 13.2477 89.464 12.5329 88.1193 12.5808C86.6186 12.5808 85.7933 13.1666 85.7933 14.2301C85.7933 17.1738 94.7914 15.4594 94.7914 21.5543C94.7914 24.5643 92.3168 26.4125 88.3919 26.4125C85.0762 26.3941 82.6839 25.2974 81.4141 22.6252Z" fill="white"/>
<path d="M96.0182 18.0494C96.0182 13.018 100.093 9.53027 103.993 9.53027C106.723 9.53027 108.472 10.5533 109.527 12.3339V9.85939H113.09V26.1067H109.461V23.8299C108.188 25.5541 106.131 26.5181 103.992 26.3953C99.5072 26.2467 95.9618 22.5379 96.0182 18.0494ZM109.7 18.0494C109.7 15.2346 107.418 12.9529 104.604 12.9529C101.789 12.9529 99.5072 15.2346 99.5072 18.0494C99.5072 20.8641 101.789 23.1458 104.604 23.1458C107.418 23.1446 109.7 20.8629 109.7 18.0494Z" fill="white"/>
<path d="M117.839 0.198639L123.851 15.2338C123.881 15.2952 123.955 15.321 124.016 15.2916C124.042 15.2793 124.061 15.2584 124.074 15.2338L129.534 5.80721C129.567 5.74703 129.546 5.67212 129.486 5.63896C129.482 5.63651 129.48 5.63528 129.476 5.63405L118.003 0.0340788C117.958 -0.0113596 117.884 -0.0113596 117.839 0.0340788C117.793 0.0782891 117.793 0.151973 117.839 0.198639Z" fill="#E98C24"/>
<path d="M130.209 6.49825L124.51 15.8758C124.476 15.9359 124.499 16.0108 124.557 16.044C124.583 16.0587 124.613 16.0624 124.641 16.0575L133.466 13.9882C133.528 13.9772 133.57 13.9158 133.558 13.8531C133.555 13.8421 133.552 13.8323 133.548 13.8224L130.423 6.51545C130.393 6.45282 130.32 6.42703 130.258 6.4565C130.239 6.4651 130.221 6.47983 130.209 6.49825Z" fill="#876DA2"/>
<path d="M124.593 17.0568L130.06 20.4794C130.12 20.5126 130.195 20.4941 130.233 20.4377L133.467 14.78C133.501 14.721 133.482 14.6449 133.423 14.6105C133.393 14.5933 133.359 14.5896 133.327 14.5982L124.635 16.8333C124.568 16.8493 124.527 16.9156 124.542 16.9819C124.549 17.0126 124.567 17.0384 124.593 17.0568Z" fill="#2DA5BD"/>
<path d="M123.776 17.4589L121.244 23.6852C121.216 23.7429 121.24 23.8117 121.298 23.8387C121.328 23.8534 121.362 23.8547 121.393 23.8412L129.599 21.1357C129.658 21.1124 129.687 21.0449 129.663 20.9859C129.65 20.9564 129.627 20.9331 129.599 20.9221L123.925 17.4C123.867 17.3791 123.802 17.4036 123.776 17.4589Z" fill="#7FB641"/>
<path d="M155.718 14.0536L141.475 21.7486C141.421 21.7818 141.349 21.7646 141.316 21.7106C141.3 21.6848 141.295 21.6541 141.301 21.6246L143.157 10.9036C143.168 10.841 143.227 10.7992 143.291 10.809C143.296 10.8103 143.301 10.8115 143.306 10.8127L155.676 13.8645C155.737 13.8939 155.763 13.9689 155.732 14.029C155.73 14.0376 155.724 14.0462 155.718 14.0536Z" fill="#E98C24"/>
<path d="M142.185 10.9855L140.536 21.8391C140.527 21.9067 140.466 21.9546 140.397 21.946C140.364 21.9411 140.333 21.9239 140.312 21.8956L134.861 14.655C134.81 14.6157 134.802 14.5432 134.841 14.4929C134.847 14.4867 134.853 14.4793 134.861 14.4732L141.937 10.8615C141.971 10.7927 142.053 10.7657 142.122 10.8001C142.191 10.8332 142.219 10.9167 142.185 10.9855Z" fill="#876DA2"/>
<path d="M139.744 22.6877L133.352 21.8637C133.285 21.8514 133.239 21.79 133.245 21.7237L134.383 15.3071C134.392 15.2395 134.453 15.1916 134.521 15.199C134.555 15.2039 134.586 15.2211 134.605 15.2493L139.859 22.5404C139.873 22.6067 139.83 22.673 139.763 22.6865C139.757 22.6865 139.75 22.6877 139.744 22.6877Z" fill="#2DA5BD"/>
<path d="M140.114 23.522L138.077 29.9301C138.047 29.9915 137.972 30.0173 137.911 29.9878C137.886 29.9755 137.866 29.9559 137.853 29.9301L133.276 22.5899C133.244 22.5298 133.266 22.4548 133.327 22.4229C133.349 22.4106 133.375 22.4057 133.4 22.4094L139.999 23.3329C140.066 23.3268 140.126 23.3771 140.133 23.4447C140.136 23.4704 140.129 23.4987 140.114 23.522Z" fill="#7FB641"/>
</svg>
