<svg width="21" height="21" viewBox="0 0 21 21" fill="none" xmlns="http://www.w3.org/2000/svg">
<path fill-rule="evenodd" clip-rule="evenodd" d="M6.45571 0.32856C7.52425 0.279465 7.86495 0.268555 10.5869 0.268555C13.3088 0.268555 13.6495 0.280374 14.7171 0.32856C15.7848 0.376745 16.5135 0.546759 17.1512 0.793142C17.8189 1.04498 18.4247 1.43865 18.9257 1.94778C19.4358 2.44691 19.8294 3.0506 20.0808 3.71792C20.3286 4.35434 20.498 5.08167 20.5472 6.14539C20.5964 7.21366 20.6073 7.55369 20.6073 10.2694C20.6073 12.9859 20.5955 13.326 20.5472 14.3924C20.4989 15.4561 20.3286 16.1835 20.0808 16.8199C19.8294 17.4873 19.4352 18.092 18.9257 18.5918C18.4247 19.101 17.8189 19.4937 17.1512 19.7447C16.5135 19.992 15.7848 20.1611 14.7189 20.2102C13.6495 20.2593 13.3088 20.2702 10.5869 20.2702C7.86495 20.2702 7.52425 20.2583 6.45571 20.2102C5.38989 20.162 4.66113 19.992 4.02347 19.7447C3.35476 19.4937 2.74888 19.1003 2.24802 18.5918C1.73824 18.0924 1.34373 17.488 1.09203 16.8208C0.845157 16.1844 0.67572 15.4571 0.626529 14.3933C0.577338 13.3251 0.566406 12.985 0.566406 10.2694C0.566406 7.55278 0.578249 7.21275 0.626529 6.14721C0.674809 5.08167 0.845157 4.35434 1.09203 3.71792C1.34411 3.05067 1.73891 2.44629 2.24893 1.94687C2.74908 1.4382 3.35435 1.04447 4.02255 0.793142C4.66022 0.546759 5.38898 0.377654 6.45479 0.32856H6.45571ZM14.636 2.1287C13.5793 2.08052 13.2623 2.07052 10.5869 2.07052C7.9114 2.07052 7.59439 2.08052 6.53769 2.1287C5.56024 2.17325 5.03007 2.33599 4.67662 2.47328C4.2093 2.65511 3.87498 2.87058 3.52426 3.22061C3.19181 3.54341 2.93595 3.93638 2.77546 4.3707C2.63791 4.72346 2.47485 5.25259 2.43021 6.22813C2.38193 7.28276 2.37191 7.59915 2.37191 10.2694C2.37191 12.9396 2.38193 13.256 2.43021 14.3106C2.47485 15.2861 2.63791 15.8153 2.77546 16.168C2.93579 16.6017 3.19177 16.9954 3.52426 17.3181C3.84765 17.65 4.24209 17.9054 4.67662 18.0654C5.03007 18.2027 5.56024 18.3655 6.53769 18.41C7.59439 18.4582 7.91049 18.4682 10.5869 18.4682C13.2632 18.4682 13.5793 18.4582 14.636 18.41C15.6135 18.3655 16.1437 18.2027 16.4971 18.0654C16.9644 17.8836 17.2988 17.6681 17.6495 17.3181C17.982 16.9954 18.2379 16.6017 18.3983 16.168C18.5358 15.8153 18.6989 15.2861 18.7435 14.3106C18.7918 13.256 18.8018 12.9396 18.8018 10.2694C18.8018 7.59915 18.7918 7.28276 18.7435 6.22813C18.6989 5.25259 18.5358 4.72346 18.3983 4.3707C18.2161 3.9043 18.0002 3.57064 17.6495 3.22061C17.326 2.88883 16.9323 2.63348 16.4971 2.47328C16.1437 2.33599 15.6135 2.17325 14.636 2.1287V2.1287ZM9.30698 13.3523C10.0218 13.6493 10.8177 13.6894 11.5588 13.4657C12.2999 13.2421 12.9402 12.7686 13.3704 12.1261C13.8005 11.4836 13.9939 10.712 13.9173 9.94307C13.8408 9.17413 13.4992 8.45555 12.9508 7.91008C12.6012 7.56139 12.1785 7.2944 11.7131 7.12833C11.2477 6.96226 10.7512 6.90124 10.2594 6.94965C9.76752 6.99807 9.29255 7.15473 8.86864 7.40834C8.44473 7.66195 8.08243 8.00622 7.80783 8.41635C7.53323 8.82648 7.35316 9.29227 7.28059 9.78019C7.20801 10.2681 7.24473 10.766 7.3881 11.2381C7.53147 11.7101 7.77793 12.1446 8.10974 12.5102C8.44154 12.8758 8.85044 13.1634 9.30698 13.3523ZM6.94489 6.63452C7.42316 6.15719 7.99095 5.77855 8.61584 5.52022C9.24073 5.26188 9.91049 5.12892 10.5869 5.12892C11.2632 5.12892 11.933 5.26188 12.5579 5.52022C13.1828 5.77855 13.7506 6.15719 14.2289 6.63452C14.7071 7.11186 15.0865 7.67853 15.3453 8.3022C15.6042 8.92587 15.7374 9.59431 15.7374 10.2694C15.7374 10.9444 15.6042 11.6129 15.3453 12.2365C15.0865 12.8602 14.7071 13.4269 14.2289 13.9042C13.2629 14.8682 11.9529 15.4098 10.5869 15.4098C9.22086 15.4098 7.9108 14.8682 6.94489 13.9042C5.97897 12.9402 5.43633 11.6327 5.43633 10.2694C5.43633 8.90603 5.97897 7.59854 6.94489 6.63452V6.63452ZM16.8797 5.89446C16.9982 5.78288 17.0931 5.6487 17.1587 5.49986C17.2244 5.35103 17.2594 5.19056 17.2618 5.02797C17.2642 4.86537 17.2338 4.70396 17.1726 4.55327C17.1113 4.40259 17.0204 4.2657 16.9052 4.15072C16.79 4.03574 16.6528 3.94499 16.5018 3.88386C16.3509 3.82273 16.1891 3.79245 16.0262 3.79482C15.8633 3.79719 15.7025 3.83216 15.5534 3.89766C15.4043 3.96316 15.2698 4.05786 15.158 4.17614C14.9406 4.40619 14.8215 4.71175 14.8262 5.02797C14.8308 5.34418 14.9587 5.64615 15.1828 5.86977C15.4068 6.09339 15.7094 6.22106 16.0262 6.22567C16.3431 6.23028 16.6492 6.11147 16.8797 5.89446V5.89446Z" fill="#CBD5E1"/>
</svg>
