<svg width="60" height="56" viewBox="0 0 60 56" fill="none" xmlns="http://www.w3.org/2000/svg">
<rect width="56" height="56" rx="28" fill="white"/>
<path d="M15.334 38.8529V34.5195C15.334 30.6535 18.468 27.5195 22.334 27.5195H25.2507" stroke="#3E8BFF" stroke-width="2" stroke-linecap="round" stroke-linejoin="round"/>
<path d="M35.1053 27.7266C35.8986 26.8555 37.2693 26.8555 38.0627 27.7266L38.3711 28.0652C38.772 28.5055 39.3483 28.7442 39.9431 28.7164L40.4007 28.695C41.5776 28.64 42.5469 29.6092 42.4919 30.7862L42.4705 31.2437C42.4427 31.8386 42.6814 32.4149 43.1217 32.8158L43.4603 33.1242C44.3314 33.9176 44.3314 35.2883 43.4603 36.0816L43.1217 36.39C42.6814 36.791 42.4427 37.3672 42.4705 37.9621L42.4919 38.4196C42.5469 39.5966 41.5776 40.5658 40.4007 40.5108L39.9431 40.4894C39.3483 40.4616 38.772 40.7003 38.3711 41.1406L38.0627 41.4792C37.2693 42.3504 35.8986 42.3504 35.1053 41.4792L34.7969 41.1406C34.3959 40.7003 33.8197 40.4616 33.2248 40.4894L32.7673 40.5108C31.5903 40.5658 30.6211 39.5966 30.6761 38.4196L30.6975 37.9621C30.7253 37.3672 30.4866 36.791 30.0463 36.39L29.7077 36.0816C28.8365 35.2883 28.8365 33.9176 29.7077 33.1242L30.0463 32.8158C30.4866 32.4149 30.7253 31.8386 30.6975 31.2437L30.6761 30.7862C30.6211 29.6092 31.5903 28.64 32.7673 28.695L33.2248 28.7164C33.8197 28.7442 34.3959 28.5055 34.7969 28.0652L35.1053 27.7266Z" stroke="#3E8BFF" stroke-width="2"/>
<path d="M34.2656 34.6029L35.8111 36.1484L38.902 33.0574" stroke="#3E8BFF" stroke-width="2" stroke-linecap="round" stroke-linejoin="round"/>
<path d="M25.2507 27.5195C28.3803 27.5195 30.9173 24.9824 30.9173 21.8528C30.9173 18.7232 28.3803 16.1862 25.2507 16.1862C22.121 16.1862 19.584 18.7232 19.584 21.8528C19.584 24.9824 22.121 27.5195 25.2507 27.5195Z" stroke="#3E8BFF" stroke-width="2" stroke-linecap="round" stroke-linejoin="round"/>
</svg>
