<svg width="19" height="20" viewBox="0 0 19 20" fill="none" xmlns="http://www.w3.org/2000/svg">
<path d="M17.3651 9.71787L9.70678 17.3762C8.76858 18.3144 7.4961 18.8415 6.16928 18.8415C4.84246 18.8415 3.56999 18.3144 2.63178 17.3762C1.69358 16.438 1.1665 15.1655 1.1665 13.8387C1.1665 12.5119 1.69358 11.2394 2.63178 10.3012L10.2901 2.64287C10.9156 2.0174 11.7639 1.66602 12.6485 1.66602C13.533 1.66602 14.3813 2.0174 15.0068 2.64287C15.6323 3.26834 15.9836 4.11666 15.9836 5.0012C15.9836 5.88575 15.6323 6.73407 15.0068 7.35954L7.34012 15.0179C7.02738 15.3306 6.60322 15.5063 6.16095 15.5063C5.71868 15.5063 5.29452 15.3306 4.98178 15.0179C4.66905 14.7051 4.49336 14.281 4.49336 13.8387C4.49336 13.3964 4.66905 12.9723 4.98178 12.6595L12.0568 5.59287" stroke="#49B7CC" stroke-width="1.5" stroke-linecap="round" stroke-linejoin="round"/>
</svg>
