<svg width="351" height="240" viewBox="0 0 351 240" fill="none" xmlns="http://www.w3.org/2000/svg">
<g clip-path="url(#clip0_618_1160)">
<g opacity="0.5" filter="url(#filter0_f_618_1160)">
<circle cx="175.5" cy="211.5" r="136.5" fill="url(#paint0_linear_618_1160)"/>
</g>
<path d="M115.272 231.962L118.043 248.614L136.808 361.93H139.835L126.191 248.614L124.17 231.962H115.272Z" fill="#DBDBDB"/>
<path d="M124.17 231.962H115.272L118.043 248.614H126.191L124.17 231.962Z" fill="#A6A6A6"/>
<path d="M56.3145 361.93H59.3414L78.116 248.614L80.8869 231.962H71.9797L69.9678 248.614L56.3145 361.93Z" fill="#DBDBDB"/>
<path d="M71.9799 231.962L69.968 248.614H78.1162L80.8871 231.962H71.9799Z" fill="#A6A6A6"/>
<path d="M0 361.93H3.02697L21.8015 248.614L24.5724 231.962H15.6744L13.6534 248.614L0 361.93Z" fill="#DBDBDB"/>
<path d="M13.6536 248.614H21.8017L24.5726 231.962H15.6746L13.6536 248.614Z" fill="#A6A6A6"/>
<path d="M4.80127 239.789H142.369V225.262H90.8734L73.5621 124.347H10.0505L4.80127 239.789Z" fill="#DBDBDB"/>
<path d="M4.80127 239.789H12.3001L17.1927 124.347H10.0505L4.80127 239.789Z" fill="#A6A6A6"/>
<path d="M35.7016 220.973C51.0103 236.654 99.5516 221.642 102.761 228.002C105.596 233.611 76.0765 326.984 76.0765 326.984L129.931 330.448C129.931 330.448 171.824 226.93 154.019 198.308C144.398 182.856 105.304 190.875 81.4172 189.015C74.211 188.446 70.2055 173.782 70.2055 173.782L27.7455 175.615C27.7455 175.615 18.1891 203.055 35.7016 220.973Z" fill="#37474F"/>
<path d="M138.71 189.867L95.1895 226.344C80.2284 226.674 47.7273 233.291 35.7474 220.973C18.2348 203.055 27.7822 175.625 27.7822 175.625L70.2421 173.792C70.2421 173.792 74.2476 188.456 81.4447 189.024C98.1708 190.316 122.405 186.76 138.71 189.867Z" fill="#263238"/>
<path d="M109.035 222.339C105.514 220.771 79.4233 222.751 60.5665 221.807C54.4394 221.495 48.2483 220.46 43.4197 216.647C39.1867 213.157 36.0755 208.493 34.476 203.239C32.3909 196.897 32.3178 190.197 32.3909 183.644C32.3909 182.031 32.3909 180.409 32.4641 178.787C32.4641 178.695 32.2995 178.677 32.2995 178.787C31.385 190.628 30.8546 203.835 38.9387 213.705C42.5294 218.031 47.4898 220.993 52.9945 222.1C64.4348 224.584 106.95 221.999 108.468 223.09C110.297 224.382 86.4558 309.433 85.9803 311.074C85.8888 311.376 86.4192 311.559 86.529 311.257C88.9158 304.622 112.098 223.704 109.035 222.339Z" fill="#263238"/>
<path d="M156.059 201.057C153.251 194.734 147.307 190.976 138.766 189.812C138.619 189.812 138.638 190.004 138.766 190.041C146.264 191.874 151.687 194.624 154.861 200.773C156.351 203.633 157.229 207.711 157.824 213.201C160.768 240.586 139.534 303.934 139.113 305.052C139.113 305.153 139.214 305.226 139.259 305.125C142.396 299.306 167.636 227.15 156.059 201.057Z" fill="#263238"/>
<path d="M179.506 294.412L139.268 304.832C139.268 304.832 167.16 207.684 151.577 195.943C147.261 192.699 138.125 191.892 127.517 197.043C111.696 204.723 93.6809 219.772 76.3055 225.739C60.0275 231.329 40.2653 227.691 33.2145 220.56C18.3906 205.567 27.7276 175.652 27.7276 175.652L86.0174 170.923C86.0174 170.923 85.1761 171.665 88.0659 174.021C88.0659 174.021 122.039 164.737 137.348 173.214C164.993 188.474 179.506 294.412 179.506 294.412Z" fill="#37474F"/>
<path d="M53.1048 177.934C53.1018 177.921 53.0962 177.908 53.0884 177.897C53.0805 177.886 53.0706 177.877 53.0592 177.87C53.0477 177.862 53.0349 177.858 53.0216 177.855C53.0082 177.853 52.9945 177.853 52.9813 177.856C52.9681 177.859 52.9556 177.865 52.9446 177.873C52.9335 177.881 52.9241 177.891 52.9169 177.902C52.9097 177.914 52.9048 177.926 52.9025 177.94C52.9002 177.953 52.9006 177.967 52.9036 177.98C53.0502 180.175 52.9766 182.38 52.6841 184.56C52.3041 186.64 51.3542 188.573 49.9406 190.142C46.8771 193.524 42.332 194.825 38.1985 196.337C37.9791 196.411 38.0339 196.805 38.2808 196.759C42.9082 195.843 47.7458 194.44 51.0014 190.793C52.49 189.109 53.445 187.019 53.7449 184.79C54.1057 182.487 53.8856 180.13 53.1048 177.934Z" fill="#263238"/>
<path d="M150.507 194.156C144.106 190.49 134.476 193.909 129.876 195.907C129.785 195.907 129.876 196.099 129.931 196.062C134.165 194.33 144.755 191.48 150.644 195.329C164.261 204.128 149.355 269.034 139.286 304.832C139.131 305.391 139.56 305.226 139.78 304.686C141.518 300.415 154.522 255.195 157.155 225.491C157.549 220.927 159.753 199.426 150.507 194.156Z" fill="#263238"/>
<path d="M148.45 192.58C144.152 190.463 139.14 190.298 134.504 191.077C129.615 192.035 124.902 193.741 120.53 196.136C111.221 200.902 102.405 206.611 93.0956 211.35C83.7861 216.088 73.8912 219.873 63.4752 220.643C54.5863 221.303 43.2466 220.221 37.1743 212.44C27.8099 200.452 32.0349 178.906 32.0714 177.522C32.0714 177.412 31.9343 177.421 31.916 177.522C26.2004 204.036 35.4459 213.833 41.573 217.848C46.4381 221.037 53.2603 221.605 57.7596 221.788C68.1574 222.219 78.4363 219.222 87.8739 214.97C97.5583 210.607 106.557 204.888 115.784 199.673C124.627 194.642 134.495 189.427 144.938 191.636C146.125 191.895 147.293 192.238 148.432 192.662C148.477 192.699 148.532 192.607 148.45 192.58Z" fill="#263238"/>
<path d="M80.9597 99.4364C81.5907 103.222 82.2308 107.025 82.7155 110.838C83.0081 113.166 83.1545 115.475 83.2368 117.803C82.549 118.725 81.7573 119.565 80.8774 120.305C80.8774 119.718 80.8316 119.123 80.8134 118.555C80.7219 115.805 80.411 113.056 80.0635 110.306C80.0635 110.214 79.9263 110.251 79.9355 110.306C80.2007 113.147 80.2647 116.043 80.3104 118.903C80.3104 119.526 80.3104 120.149 80.3104 120.736C79.479 121.384 78.5985 121.966 77.6766 122.477C77.6766 121.793 77.6766 121.115 77.6766 120.443C77.6766 118.857 77.6766 117.281 77.5669 115.704C77.4233 112.599 77.1181 109.503 76.6524 106.429C76.6524 106.301 76.4787 106.347 76.4878 106.429C76.7987 109.61 76.9999 112.845 77.1097 116.016C77.1097 117.528 77.1828 119.049 77.1828 120.598C77.1828 121.322 77.1828 122.056 77.1279 122.789C75.4531 123.655 73.7059 124.372 71.9062 124.933C66.785 126.556 61.1883 126.262 55.9666 125.272C51.3447 124.447 47.0083 122.456 43.3648 119.489C44.624 117.034 45.5468 114.42 46.1083 111.717C46.1083 111.626 46.026 111.589 45.9894 111.672C45.3767 113.404 44.7 115.09 43.9593 116.749C43.6026 117.528 43.2185 118.289 42.8436 119.049L42.679 118.903C42.3223 118.582 41.9474 118.243 41.5724 117.876C42.2928 116.291 42.9308 114.67 43.4837 113.019C44.3293 110.692 44.9778 108.297 45.4224 105.861C45.4224 105.705 45.267 105.632 45.2121 105.788C44.4348 108.061 43.7123 110.37 42.9076 112.634C42.3406 114.229 41.6822 115.787 41.0786 117.363C39.8895 116.216 39.1884 114.653 39.1216 113.001C39.2495 111.572 39.6239 110.177 40.2281 108.876C40.779 107.401 41.2551 105.899 41.6547 104.376C42.5052 101.233 45.1298 96.7694 46.0077 83.8377C46.2089 80.7949 46.0077 77.7246 46.2455 74.6727C46.3454 72.1635 47.2679 69.7573 48.8701 67.8265C50.2133 66.3898 51.9199 65.3446 53.8084 64.802C53.8084 64.7196 63.2459 54.6381 74.5399 60.9711C87.3428 68.1656 87.6446 105.329 86.8765 109.793C86.2899 112.295 85.2883 114.68 83.9135 116.85C83.8312 114.889 83.6209 112.927 83.3739 111.021C82.871 107.08 82.0296 103.231 81.17 99.3723C81.1658 99.3584 81.1589 99.3456 81.1498 99.3344C81.1406 99.3232 81.1293 99.3139 81.1166 99.3071C81.1038 99.3003 81.0899 99.2961 81.0755 99.2947C81.0612 99.2933 81.0467 99.2947 81.0328 99.299C81.019 99.3032 81.0062 99.3101 80.995 99.3192C80.9839 99.3284 80.9746 99.3397 80.9678 99.3525C80.961 99.3653 80.9568 99.3793 80.9554 99.3937C80.954 99.4081 80.9555 99.4226 80.9597 99.4364Z" fill="#263238"/>
<path d="M64.5268 117.501C78.1436 132.861 96.4609 147.131 103.85 146.563C109.813 146.105 144.627 123.055 147.014 119.682C149.063 116.786 131.312 95.7889 127.892 97.4386C122.149 100.188 102.112 118.326 100.338 118.142C98.5643 117.959 83.722 112.222 68.9346 106.026C54.7966 100.087 55.0801 106.833 64.5268 117.501Z" fill="#F7A9A0"/>
<path d="M143.182 122.835C145.981 121.093 158.107 111.956 160.914 108.657C163.722 105.357 171.111 95.2849 168.806 92.8746C166.502 90.4642 164.106 93.2412 164.106 93.2412C164.106 93.2412 166.557 88.4845 164.024 86.2758C161.49 84.067 157.887 88.5029 157.887 88.5029C157.887 88.5029 160.055 83.4346 157.366 81.4092C154.677 79.3837 151.806 84.452 151.806 84.452C151.806 84.452 154.001 79.8695 151.083 79.1821C147.572 78.2656 144.481 87.119 141.106 90.5283C140.338 91.2982 124.472 105.101 124.472 105.101L143.182 122.835Z" fill="#F7A9A0"/>
<path d="M152.062 84.03C149.776 90.5096 147.654 92.9475 142.341 97.1359C142.24 97.2183 142.341 97.3925 142.451 97.31C148.02 93.644 151.12 91.0137 152.382 84.1216C152.446 83.7459 152.19 83.7459 152.062 84.03Z" fill="#263238"/>
<path d="M158.061 87.9803C155.098 94.5057 152.821 97.1452 147.581 101.966C147.508 102.039 147.581 102.168 147.7 102.103C153.187 97.8326 156.26 95.0923 158.372 88.1819C158.464 87.8703 158.199 87.687 158.061 87.9803Z" fill="#263238"/>
<path d="M163.831 93.479C160.503 99.5829 158.134 102.644 152.455 106.612C152.441 106.621 152.428 106.633 152.418 106.647C152.408 106.661 152.401 106.677 152.398 106.693C152.394 106.71 152.393 106.727 152.396 106.744C152.399 106.761 152.405 106.777 152.414 106.791C152.423 106.806 152.435 106.818 152.449 106.828C152.462 106.838 152.478 106.845 152.495 106.849C152.511 106.853 152.528 106.853 152.545 106.85C152.562 106.847 152.578 106.841 152.592 106.832C158.774 103.313 161.737 99.5554 164.005 93.5981C164.161 93.1857 164.078 93.0941 163.831 93.479Z" fill="#263238"/>
<path d="M119.021 105.311C119.021 105.311 121.436 97.0625 123.292 93.644C125.149 90.2255 136.735 80.1348 139.058 82.5177C142.048 85.5972 136.516 92.7458 133.342 95.8986C133.342 95.8986 140.283 103.011 137.412 109.004C134.54 114.998 119.021 105.311 119.021 105.311Z" fill="#F7A9A0"/>
<path d="M139.597 83.6359C140.311 88.4108 135.885 92.2784 133.041 95.5503C132.997 95.5962 132.965 95.652 132.948 95.7128C132.93 95.7737 132.928 95.8378 132.94 95.8998C132.953 95.9619 132.98 96.02 133.02 96.0692C133.06 96.1184 133.111 96.1574 133.169 96.1827C135.912 99.3629 138.784 104.633 137.668 108.894C137.668 109.023 137.814 109.087 137.86 108.968C139.689 104.55 137.247 99.143 134.056 95.8527C137.028 92.5259 141.298 88.4566 139.643 83.6084C139.634 83.5992 139.597 83.5992 139.597 83.6359Z" fill="#263238"/>
<path d="M116.141 104.743L139.534 131.321C139.534 131.321 110.736 148.478 103 147.369C95.2629 146.26 85.4595 139.982 65.4047 118.866C49.5199 102.14 61.4906 101.453 71.1294 105.806C79.0032 109.344 98.9666 117.345 100.485 116.584C102.003 115.823 116.141 104.743 116.141 104.743Z" fill="#60A5FA"/>
<path d="M139.524 131.321C139.524 131.321 113.48 146.847 104.28 147.406C103.854 147.448 103.425 147.448 103 147.406C95.2629 146.288 85.4595 140.019 65.3956 118.903C58.3722 111.497 56.7993 107.245 58.0796 105.155C59.68 102.552 65.7705 103.405 71.1569 105.824C79.0215 109.362 98.9849 117.372 100.512 116.602C102.039 115.832 116.168 104.761 116.168 104.761L139.524 131.321Z" fill="#60A5FA"/>
<path d="M111.65 110.324C114.842 114.458 118.235 118.454 121.71 122.367C123.411 124.283 125.112 126.207 126.877 128.059C128.642 129.91 130.681 131.816 132.51 133.759C132.592 133.842 132.73 133.759 132.647 133.631C130.891 131.651 129.273 129.525 127.554 127.49C125.834 125.456 124.188 123.632 122.496 121.707C119.04 117.785 115.555 113.871 111.971 110.077C111.938 110.034 111.89 110.007 111.836 110C111.783 109.993 111.73 110.007 111.687 110.04C111.645 110.073 111.617 110.121 111.61 110.175C111.603 110.228 111.618 110.282 111.65 110.324Z" fill="#263238"/>
<path opacity="0.1" d="M110.123 146.013C108.243 146.724 106.279 147.192 104.28 147.406C103.854 147.448 103.425 147.448 103 147.406C95.2629 146.288 85.4595 140.019 65.3956 118.903C58.3722 111.497 56.7993 107.245 58.0796 105.155C58.3252 104.773 58.6614 104.459 59.0581 104.239L110.123 146.013Z" fill="black"/>
<path d="M84.6548 155.966L86.0174 170.813C86.0174 170.813 68.5414 173.507 25.1304 175.395C25.1304 175.395 32.2817 128.553 46.2277 110.627C53.1962 101.663 62.2405 101.544 68.4591 106.897C70.0229 108.253 85.0389 131.156 87.5812 139.762C89.8034 147.369 84.6548 155.966 84.6548 155.966Z" fill="#60A5FA"/>
<path d="M65.7886 111.919C67.4164 115.502 68.9802 119.113 70.4434 122.761C71.9065 126.409 73.3789 130.093 74.6226 133.805C75.2536 135.638 75.848 137.563 76.3418 139.487C76.8529 141.445 76.9924 143.481 76.7534 145.49C76.5087 147.479 76.033 149.432 75.3359 151.31C74.6506 153.185 73.7934 154.992 72.7753 156.708L72.8393 156.461C73.0679 159.082 73.2143 161.712 73.4063 164.333C73.5984 166.955 73.7264 169.585 73.8453 172.215C73.4978 169.6 73.1777 166.988 72.885 164.379C72.6107 161.767 72.2906 159.155 72.0437 156.534V156.415L72.1169 156.287C74.0877 152.946 75.3602 149.238 75.8572 145.389C76.4241 141.549 75.0158 137.801 73.8636 134.061C72.7113 130.322 71.3121 126.647 69.9495 122.963L65.7886 111.919Z" fill="#263238"/>
<path d="M74.8509 126.335C74.8956 126.58 74.8459 126.833 74.7118 127.042C74.5776 127.251 74.3691 127.402 74.1285 127.463C73.8899 127.491 73.6497 127.425 73.4597 127.277C73.2697 127.13 73.1454 126.913 73.1134 126.675C73.0687 126.43 73.1185 126.177 73.2526 125.968C73.3867 125.759 73.5952 125.608 73.8359 125.547C74.0745 125.519 74.3147 125.585 74.5047 125.733C74.6946 125.88 74.819 126.097 74.8509 126.335Z" fill="#263238"/>
<path d="M78.7743 137.114C78.819 137.358 78.7692 137.611 78.6351 137.82C78.501 138.029 78.2925 138.18 78.0518 138.241C77.8132 138.269 77.573 138.203 77.383 138.055C77.1931 137.908 77.0687 137.691 77.0368 137.453C76.9921 137.208 77.0418 136.955 77.1759 136.746C77.3101 136.537 77.5186 136.386 77.7592 136.325C77.9978 136.297 78.238 136.363 78.428 136.511C78.618 136.658 78.7423 136.875 78.7743 137.114Z" fill="#263238"/>
<path d="M79.2405 148.102C79.2875 148.345 79.2397 148.596 79.1069 148.804C78.9741 149.012 78.7665 149.161 78.5272 149.22C78.2886 149.249 78.0483 149.182 77.8584 149.035C77.6684 148.887 77.544 148.671 77.5121 148.432C77.4651 148.187 77.5139 147.934 77.6484 147.724C77.7829 147.514 77.9927 147.364 78.2345 147.305C78.473 147.279 78.7122 147.348 78.9003 147.497C79.0885 147.646 79.2107 147.864 79.2405 148.102Z" fill="#263238"/>
<path d="M76.177 157.185C76.224 157.427 76.1762 157.679 76.0434 157.887C75.9106 158.095 75.7031 158.244 75.4637 158.303C75.2251 158.332 74.9848 158.265 74.7949 158.117C74.6049 157.97 74.4805 157.753 74.4486 157.515C74.4016 157.27 74.4504 157.016 74.5849 156.806C74.7194 156.596 74.9292 156.446 75.171 156.387C75.4096 156.362 75.6487 156.431 75.8369 156.58C76.025 156.729 76.1472 156.946 76.177 157.185Z" fill="#263238"/>
<path d="M77.3478 167.147C77.39 167.39 77.339 167.641 77.2051 167.848C77.0711 168.055 76.8641 168.204 76.6253 168.265C76.3867 168.294 76.1465 168.227 75.9565 168.08C75.7666 167.932 75.6422 167.716 75.6102 167.477C75.5655 167.232 75.6153 166.98 75.7494 166.77C75.8836 166.561 76.0921 166.411 76.3327 166.35C76.5727 166.321 76.8142 166.389 77.0044 166.538C77.1946 166.688 77.318 166.907 77.3478 167.147Z" fill="#263238"/>
<path d="M45.2769 113.129C36.4886 130.038 21.1708 164.682 27.1974 173.828C33.2239 182.975 65.1123 187.667 76.013 189.115C79.607 189.592 91.3674 163.591 87.7643 162.18C81.6372 159.778 52.8672 155.828 51.8704 153.931C51.2486 152.74 55.885 130.276 55.9765 117.171C56.1045 100.133 48.0112 107.877 45.2769 113.129Z" fill="#F7A9A0"/>
<path d="M84.5904 161.254C84.5904 161.254 95.8844 162.336 103.237 163.39C107.343 163.976 114.284 165.617 117.101 167.422C121.316 170.172 137.22 184.176 133.891 188.107C130.891 191.673 118.765 177.87 118.765 177.87C118.765 177.87 132.226 190.701 127.828 194.367C123.429 198.033 111.806 180.574 111.806 180.574C111.806 180.574 125.34 194.074 120.21 197.071C116.342 199.353 104.92 184.176 104.92 184.176C104.92 184.176 116.479 195.861 112.592 198.381C108.303 201.131 96.8812 187.814 96.8812 187.814C85.9073 192.543 78.8017 190.316 73.9091 188.117C72.7203 187.576 84.5904 161.254 84.5904 161.254Z" fill="#F7A9A0"/>
<path d="M114.394 173.132C116.031 174.589 117.695 176.046 119.195 177.632C120.695 179.217 122.149 180.876 123.493 182.599C125.287 184.818 126.821 187.235 128.066 189.803C125.514 185.404 120.219 179.621 118.72 178.035C117.22 176.45 115.802 174.782 114.303 173.187C114.293 173.15 114.358 173.104 114.394 173.132Z" fill="#263238"/>
<path d="M108.559 178.466C110.571 180.409 112.638 182.26 114.558 184.295C116.479 186.329 118.116 188.401 119.881 190.554C120.018 190.719 119.881 190.738 119.744 190.554C117.915 188.474 116.012 186.696 114.138 184.643C112.263 182.59 110.48 180.455 108.514 178.484C108.477 178.475 108.532 178.438 108.559 178.466Z" fill="#263238"/>
<path d="M102.734 182.132C105.886 185.039 108.73 188.263 111.221 191.755C111.349 191.929 111.221 191.929 111.038 191.755C108.294 188.501 106.127 185.935 102.634 182.242C102.579 182.187 102.67 182.077 102.734 182.132Z" fill="#263238"/>
<path d="M85.5878 160.667L63.9966 189.94C63.9966 189.94 30.6633 183.8 25.4782 172.71C20.293 161.621 34.8426 129.222 43.073 115.713C51.3035 102.204 56.891 102.277 56.5161 117.372C56.1777 130.89 52.1356 152.776 52.6843 153.491C53.233 154.206 85.5878 160.667 85.5878 160.667Z" fill="#60A5FA"/>
<path d="M76.9459 160.521C73.5622 164.498 70.3524 168.632 67.2431 172.829C65.7159 174.882 64.1795 176.944 62.7346 179.061C61.2897 181.178 59.8448 183.561 58.3176 185.743C58.2536 185.843 58.3999 185.963 58.4639 185.862C60.046 183.726 61.7927 181.71 63.4296 179.611C65.0666 177.513 66.5115 175.515 68.0021 173.462C71.1297 169.264 74.2389 165.057 77.2111 160.759C77.2241 160.723 77.2261 160.684 77.2167 160.647C77.2074 160.609 77.1872 160.576 77.1587 160.55C77.1302 160.525 77.0947 160.508 77.0568 160.503C77.0188 160.498 76.9802 160.504 76.9459 160.521Z" fill="#263238"/>
<path d="M85.6517 160.667C83.0911 160.576 52.483 154.114 52.4465 154.105C52.4099 154.096 53.5073 144.4 53.745 142.576C54.2328 138.836 54.7967 135.106 55.4368 131.385C55.4368 131.303 55.5923 131.303 55.5832 131.385C55.51 133.64 55.3545 135.904 55.1534 138.14C55.4551 137.15 55.7752 136.169 56.1502 135.207C56.161 135.194 56.1758 135.184 56.1925 135.179C56.2092 135.175 56.2269 135.176 56.2431 135.182C56.2593 135.188 56.2732 135.199 56.2828 135.213C56.2924 135.228 56.2971 135.245 56.2965 135.262C55.8758 137.168 55.382 139.075 54.8881 140.963C54.8333 141.467 54.8058 141.962 54.7418 142.457C54.5224 144.338 54.2754 146.211 54.0011 148.075C53.8639 148.991 53.3152 152.556 53.1963 153.51C57.2475 154.124 83.3015 159.678 85.6792 160.475C85.7706 160.512 85.7432 160.677 85.6517 160.667Z" fill="#263238"/>
<path d="M25.5324 172.857C25.9665 173.726 26.5343 174.52 27.2151 175.212C27.3065 175.295 27.2151 175.322 27.0779 175.212C26.3132 174.626 25.7555 173.811 25.4867 172.884C25.4776 172.866 25.4959 172.802 25.5324 172.857Z" fill="#263238"/>
<path d="M55.1074 105.999C55.336 107.144 60.4938 114.678 65.6698 114.604C67.3616 114.604 67.6268 105.348 67.6268 105.348L67.8006 104.67L70.2423 95.193L59.2684 87.6319L57.6863 86.6238C57.6863 86.6238 57.1925 89.2633 56.6072 92.5535C56.6072 92.7093 56.5432 92.8559 56.5157 93.0209C56.4883 93.1859 56.4426 93.3784 56.4151 93.5525C56.3237 94.0474 56.2323 94.5423 56.15 95.0464C56.0676 95.5505 56.0128 95.7979 55.967 96.2012C55.9213 96.6044 55.8482 96.9985 55.7842 97.4018C55.3606 100.248 55.1344 103.121 55.1074 105.999Z" fill="#F7A9A0"/>
<path d="M56.6165 92.5535C57.4901 95.2663 58.9434 97.7556 60.8749 99.8481C62.8065 101.941 65.1699 103.586 67.8007 104.67L70.2424 95.193L59.2685 87.6319L57.6864 86.6238C57.6864 86.6238 57.2017 89.245 56.6165 92.5535Z" fill="#263238"/>
<path d="M83.3197 78.925C86.1912 95.8618 76.397 99.5003 72.7481 100.114C69.4377 100.673 58.1162 102.158 53.5438 85.6062C48.9713 69.0543 55.894 62.373 63.3929 60.6867C70.8917 59.0003 80.4482 61.9881 83.3197 78.925Z" fill="#F7A9A0"/>
<path d="M79.6337 74.5811C79.2313 74.5811 78.8472 74.5811 78.4449 74.5261C78.0225 74.5637 77.5992 74.4641 77.2377 74.242C77.14 74.1481 77.0755 74.0248 77.054 73.8908C77.0325 73.7568 77.0553 73.6195 77.1188 73.4996C77.2802 73.2821 77.4969 73.1121 77.7462 73.0073C77.9956 72.9025 78.2685 72.8668 78.5363 72.9039C79.0931 72.8909 79.6345 73.0871 80.0544 73.4538C80.1445 73.5433 80.2069 73.6569 80.2341 73.7811C80.2613 73.9053 80.2521 74.0347 80.2077 74.1537C80.1633 74.2728 80.0855 74.3765 79.9836 74.4523C79.8818 74.5281 79.7603 74.5728 79.6337 74.5811Z" fill="#263238"/>
<path d="M68.4406 76.5791C68.8166 76.4547 69.1859 76.3109 69.5472 76.1484C69.9598 76.0486 70.329 75.817 70.5988 75.4885C70.6612 75.3677 70.6825 75.2298 70.6594 75.0958C70.6363 74.9617 70.57 74.8389 70.4708 74.7462C70.2482 74.5912 69.988 74.4993 69.7177 74.4799C69.4473 74.4606 69.1768 74.5145 68.9344 74.6362C68.4049 74.8069 67.9581 75.1697 67.6816 75.6535C67.6269 75.767 67.6057 75.8938 67.6206 76.0189C67.6355 76.144 67.6859 76.2622 67.7657 76.3596C67.8455 76.457 67.9515 76.5294 68.0711 76.5683C68.1907 76.6072 68.3189 76.611 68.4406 76.5791Z" fill="#263238"/>
<path d="M71.7148 80.4832C71.7148 80.4374 71.6417 80.5565 71.6508 80.6024C71.9069 81.748 72.0074 83.1135 71.0381 83.6909C71.0381 83.6909 71.0381 83.7734 71.0381 83.7551C72.2909 83.3335 72.1355 81.528 71.7148 80.4832Z" fill="#263238"/>
<path d="M70.4434 79.475C68.5687 79.6858 69.1357 83.4434 70.8732 83.2418C72.6107 83.0402 72.0255 79.2917 70.4434 79.475Z" fill="#263238"/>
<path d="M69.7393 79.7868C69.4466 80.0434 69.1814 80.4742 68.8248 80.5658C68.4681 80.6575 67.9652 80.3459 67.6085 80.0068C67.6085 80.0068 67.5445 80.0068 67.5536 80.0618C67.6542 80.7858 68.0383 81.4823 68.8248 81.4732C69.6112 81.464 69.9496 80.7491 70.0228 79.9976C70.0045 79.8601 69.8856 79.6768 69.7393 79.7868Z" fill="#263238"/>
<path d="M78.116 79.2094C78.116 79.1636 78.2166 79.2094 78.2257 79.301C78.3538 80.4741 78.7013 81.7939 79.8078 82.0505V82.1147C78.4727 82.0963 78.0337 80.3367 78.116 79.2094Z" fill="#263238"/>
<path d="M78.9667 77.8437C80.7957 77.4313 81.4999 81.1706 79.7807 81.5555C78.0614 81.9405 77.4121 78.192 78.9667 77.8437Z" fill="#263238"/>
<path d="M79.7897 77.9444C80.1189 78.091 80.4756 78.4026 80.8322 78.3568C81.1889 78.311 81.4724 77.8527 81.6644 77.4403C81.6644 77.3945 81.7193 77.4403 81.7284 77.4403C81.8747 78.1552 81.7741 78.9433 81.1157 79.2091C80.4573 79.4749 79.9452 78.9159 79.6434 78.2376C79.5885 78.1093 79.6525 77.8894 79.7897 77.9444Z" fill="#263238"/>
<path d="M77.3842 84.7818C77.3842 84.7818 77.9054 86.4773 78.0334 87.293C78.0334 87.3663 77.8597 87.4397 77.5853 87.5038C76.9059 87.7486 76.1721 87.8002 75.4652 87.653C74.7583 87.5058 74.1058 87.1655 73.5799 86.6698C73.5663 86.6554 73.5584 86.6366 73.5575 86.6169C73.5566 86.5971 73.5628 86.5777 73.575 86.5622C73.5871 86.5466 73.6045 86.536 73.6239 86.5322C73.6432 86.5284 73.6633 86.5317 73.6805 86.5415C74.8391 87.0834 76.1418 87.2345 77.3933 86.9722C77.3933 86.7431 76.4057 84.1036 76.5337 84.067C77.1763 84.0232 77.8218 84.0633 78.4541 84.1861C77.4665 80.6209 75.921 77.2482 74.9973 73.6831C74.9908 73.6573 74.9937 73.6301 75.0056 73.6064C75.0175 73.5827 75.0376 73.5641 75.0621 73.5541C75.0866 73.544 75.1139 73.5432 75.139 73.5518C75.1641 73.5603 75.1852 73.5776 75.1985 73.6006C76.9686 77.1685 78.3779 80.905 79.4052 84.7543C79.5149 85.2034 77.7317 84.8643 77.3842 84.7818Z" fill="#263238"/>
<path d="M77.3658 87.3111C77.0179 88.046 76.4853 88.6777 75.8203 89.1441C75.4562 89.3795 75.0277 89.4949 74.5949 89.474C73.6804 89.4099 73.4518 88.5575 73.4792 87.8518C73.4956 87.4551 73.557 87.0615 73.6621 86.6787C74.7979 87.2796 76.0955 87.5012 77.3658 87.3111Z" fill="#263238"/>
<path d="M75.8203 89.0982C75.4562 89.3337 75.0277 89.449 74.5949 89.4282C73.6804 89.364 73.4518 88.5117 73.4792 87.806C73.9578 87.7231 74.4504 87.8059 74.8758 88.0408C75.3013 88.2756 75.6344 88.6485 75.8203 89.0982Z" fill="#FF9ABB"/>
<path d="M53.9094 86.9355C56.7992 86.7063 56.5157 80.6025 56.5157 80.6025C56.5157 80.6025 62.3228 79.686 62.9172 71.0434C63.1468 73.5799 62.6318 76.1283 61.4357 78.3754C61.4357 78.3754 71.4951 75.6717 74.4581 66.461C74.4581 66.461 73.4247 71.1076 72.0621 72.8764C72.0621 72.8764 76.1591 70.9976 77.7046 67.1758C77.7046 67.1758 80.2743 71.85 81.8655 73.0047C81.8655 73.0047 78.6373 55.1239 62.3502 59.6422C62.3502 59.6422 52.0713 61.961 49.6296 70.7868C47.1879 79.6127 53.9094 86.9355 53.9094 86.9355Z" fill="#263238"/>
<path d="M56.3419 84.9006C56.3419 84.9006 52.1718 79.8598 49.8582 81.3904C47.5445 82.9209 50.9921 90.4362 53.9185 91.2702C54.2868 91.4014 54.6777 91.4566 55.0677 91.4325C55.4578 91.4084 55.839 91.3055 56.1883 91.13C56.5377 90.9545 56.8481 90.71 57.1008 90.4112C57.3535 90.1125 57.5433 89.7656 57.6588 89.3914L56.3419 84.9006Z" fill="#F7A9A0"/>
<path d="M50.9004 83.5261V83.5994C52.958 84.241 54.156 86.0098 55.0522 87.8703C54.9206 87.6793 54.7492 87.5192 54.5498 87.4011C54.3505 87.2829 54.1279 87.2096 53.8975 87.186C53.6671 87.1625 53.4343 87.1894 53.2153 87.2648C52.9962 87.3402 52.7961 87.4624 52.6288 87.6229C52.5831 87.6687 52.6288 87.742 52.6928 87.7328C53.0326 87.5902 53.4084 87.5577 53.7675 87.6399C54.1267 87.722 54.4512 87.9148 54.6955 88.1911C55.1041 88.6562 55.4627 89.163 55.7655 89.7033C55.8752 89.8683 56.1862 89.7491 56.1039 89.5475V89.5017C55.9118 86.9538 53.653 83.5536 50.9004 83.5261Z" fill="#263238"/>
<path d="M67.8828 104.358L65.6698 112.35L55.1165 103.735L52.7754 107.144C52.7754 107.144 63.7493 121.478 63.7493 120.772L66.1544 113.834L71.2116 117.913L69.5564 106.438L67.8828 104.358Z" fill="#60A5FA"/>
<path d="M70.6996 112.157C70.3704 110.269 70.0778 108.363 69.6571 106.493C69.6571 106.429 69.5382 106.411 69.5291 106.493C69.3553 108.326 70.6722 115.566 70.8642 117.308C70.6539 117.134 66.2095 113.752 66.1729 113.816C65.615 114.934 63.8409 119.993 63.7312 120.451C61.9936 118.169 54.696 109.243 52.7024 107.126C52.6475 107.071 52.5469 107.126 52.5926 107.208C54.1747 109.637 63.6306 121.441 63.7495 121.395C64.7104 118.996 65.5467 116.549 66.2552 114.063C67.0325 114.824 71.5684 118.701 71.5501 118.417C71.3775 116.317 71.0936 114.227 70.6996 112.157Z" fill="#263238"/>
<path d="M216.448 17.8677C216.448 21.1481 217.357 24.3641 219.075 27.1566C220.792 29.9492 223.251 32.2083 226.175 33.6818C229.1 35.1554 232.375 35.7853 235.636 35.5012C238.897 35.2172 242.015 34.0304 244.642 32.0733L253.293 34.2913L249.69 26.2169C250.959 23.8433 251.671 21.211 251.772 18.5201C251.873 15.8292 251.36 13.1507 250.272 10.6884C249.185 8.22604 247.551 6.04471 245.496 4.31034C243.441 2.57596 241.018 1.33423 238.411 0.67962C235.805 0.0250049 233.084 -0.0252515 230.456 0.532673C227.827 1.0906 225.36 2.242 223.242 3.8993C221.125 5.5566 219.412 7.67612 218.235 10.0966C217.057 12.5172 216.446 15.1749 216.448 17.8677Z" fill="#60A5FA"/>
<path d="M216.448 17.8676C216.446 21.1498 217.348 24.3688 219.055 27.17C219.483 27.8529 219.951 28.5108 220.454 29.1405C220.98 29.7853 221.545 30.3974 222.146 30.9735C223.336 32.0946 224.678 33.0418 226.133 33.7872C227.588 34.5472 229.143 35.0994 230.751 35.4277C231.556 35.5912 232.372 35.6953 233.193 35.7393C234.011 35.8081 234.834 35.8081 235.653 35.7393C238.954 35.4798 242.119 34.3093 244.798 32.3574L244.523 32.4124L253.156 34.7036L253.961 34.9144L253.623 34.1446L250.056 26.0519V26.446C251.349 24.047 252.079 21.3841 252.19 18.6599C252.301 15.9356 251.791 13.2218 250.698 10.7249C249.605 8.22809 247.958 6.01398 245.883 4.25111C243.808 2.48823 241.358 1.22302 238.721 0.551769C236.084 -0.119487 233.33 -0.179108 230.666 0.377444C228.003 0.933995 225.501 2.09205 223.352 3.7635C221.203 5.43494 219.462 7.57574 218.262 10.023C217.063 12.4702 216.436 15.1594 216.43 17.8859L216.448 17.8676ZM216.448 17.8676C216.443 15.1889 217.052 12.5447 218.229 10.1398C219.407 7.73488 221.12 5.63373 223.238 3.99896C225.355 2.36419 227.82 1.23965 230.44 0.712375C233.061 0.185101 235.768 0.269235 238.351 0.958267C240.905 1.63261 243.271 2.88696 245.264 4.62425C247.221 6.35084 248.783 8.47956 249.846 10.8656C250.893 13.2724 251.384 15.8854 251.281 18.5092C251.17 21.1272 250.479 23.6878 249.26 26.0061L249.151 26.1986L249.242 26.4002L252.9 34.4562L253.367 33.9063L244.688 31.7617H244.542L244.414 31.8533C241.85 33.8087 238.795 35.0113 235.589 35.3269C234.789 35.4018 233.985 35.4171 233.184 35.3727C232.38 35.3452 231.58 35.2625 230.788 35.1252C229.2 34.8344 227.661 34.3223 226.215 33.6039C224.75 32.8931 223.4 31.9663 222.21 30.8544C221.612 30.3083 221.047 29.7268 220.518 29.113C220.009 28.4825 219.538 27.8214 219.11 27.1334C217.387 24.35 216.466 21.1431 216.448 17.8676Z" fill="#263238"/>
<path d="M227.23 18.6009C227.232 18.9098 227.142 19.2123 226.972 19.4699C226.802 19.7276 226.559 19.9287 226.274 20.0477C225.99 20.1668 225.677 20.1984 225.374 20.1386C225.072 20.0788 224.794 19.9302 224.576 19.7117C224.358 19.4933 224.21 19.2148 224.15 18.9118C224.09 18.6087 224.122 18.2947 224.241 18.0096C224.36 17.7245 224.56 17.4813 224.817 17.3108C225.074 17.1403 225.376 17.0502 225.684 17.052C226.094 17.052 226.487 17.2152 226.777 17.5057C227.067 17.7962 227.23 18.1901 227.23 18.6009Z" fill="#263238"/>
<path d="M235.397 18.6009C235.399 18.9094 235.309 19.2115 235.139 19.469C234.97 19.7264 234.728 19.9275 234.444 20.0468C234.16 20.1662 233.847 20.1983 233.545 20.1393C233.242 20.0802 232.965 19.9325 232.746 19.715C232.528 19.4975 232.379 19.2199 232.318 18.9174C232.258 18.6149 232.288 18.3012 232.405 18.0159C232.523 17.7307 232.722 17.4868 232.978 17.3152C233.233 17.1436 233.534 17.052 233.842 17.052C234.253 17.052 234.647 17.2149 234.938 17.5051C235.23 17.7953 235.395 18.1893 235.397 18.6009Z" fill="#263238"/>
<path d="M243.554 18.6009C243.555 18.9094 243.466 19.2115 243.296 19.469C243.126 19.7264 242.884 19.9275 242.6 20.0468C242.316 20.1662 242.004 20.1983 241.701 20.1393C241.399 20.0802 241.121 19.9325 240.903 19.715C240.685 19.4975 240.536 19.2199 240.475 18.9174C240.414 18.6149 240.445 18.3012 240.562 18.0159C240.679 17.7307 240.879 17.4868 241.134 17.3152C241.39 17.1436 241.691 17.052 241.999 17.052C242.41 17.052 242.804 17.2149 243.095 17.5051C243.386 17.7953 243.551 18.1893 243.554 18.6009Z" fill="#263238"/>
<path d="M235.414 231.961L232.643 248.614L213.868 361.93H210.841L224.494 248.614L226.515 231.961H235.414Z" fill="#DBDBDB"/>
<path d="M226.515 231.961H235.413L232.643 248.614H224.494L226.515 231.961Z" fill="#A6A6A6"/>
<path d="M294.371 361.93H291.344L272.569 248.614L269.798 231.961H278.705L280.717 248.614L294.371 361.93Z" fill="#DBDBDB"/>
<path d="M278.705 231.961L280.717 248.614H272.569L269.798 231.961H278.705Z" fill="#A6A6A6"/>
<path d="M350.685 361.93H347.658L328.884 248.614L326.113 231.961H335.011L337.032 248.614L350.685 361.93Z" fill="#DBDBDB"/>
<path d="M337.032 248.614H328.884L326.113 231.961H335.011L337.032 248.614Z" fill="#A6A6A6"/>
<path d="M345.884 239.788H208.317V225.262H259.812L277.123 124.346H340.635L345.884 239.788Z" fill="#DBDBDB"/>
<path d="M345.884 239.788H338.385L333.493 124.346H340.635L345.884 239.788Z" fill="#A6A6A6"/>
<path d="M269.807 98.2539C248.673 122.147 229.487 147.855 229.112 159.925C228.591 176.633 240.644 178.255 245.171 177.769C257.489 176.504 272.789 125.813 278.431 105.852C283.9 86.4952 274.444 93.0115 269.807 98.2539Z" fill="#60A5FA"/>
<path opacity="0.1" d="M278.431 105.851C272.798 125.813 257.489 176.504 245.171 177.769C244.603 177.822 244.032 177.84 243.461 177.824C249.936 160.841 269.286 110.086 275.898 93.2954C279.382 91.7099 281.888 93.6071 278.431 105.851Z" fill="black"/>
<path d="M191.28 328.038L237.919 316.884C237.919 316.884 224.202 237.194 226.214 234.472C229.954 229.313 286.908 230.412 304.476 212.917C323.077 194.394 314.956 170.969 314.956 170.969H264.019C264.019 170.969 263.616 177.833 262.684 178.108C251.143 181.481 205.829 182.975 189.341 196.218C185.098 199.627 177.928 208.499 176.465 217.297C171.829 245.443 191.28 328.038 191.28 328.038Z" fill="#263238"/>
<path d="M304.476 212.917C293.072 224.272 265.071 227.791 245.802 230.284L283.479 170.969H314.956C314.956 170.969 323.077 194.394 304.476 212.917Z" fill="#37474F"/>
<path d="M229.094 303.989C229.213 304.658 228.838 305.052 228.6 303.989C223.113 278.895 219.144 247.579 218.742 243.5C218.532 241.456 218.358 239.413 218.266 237.36C218.221 236.333 218.184 235.298 218.212 234.262C218.202 233.205 218.309 232.151 218.532 231.118C218.598 230.839 218.696 230.568 218.824 230.312C218.97 230.034 219.176 229.793 219.428 229.606C219.871 229.279 220.358 229.014 220.873 228.818C221.836 228.427 222.827 228.106 223.836 227.856C225.829 227.333 227.841 226.939 229.853 226.554C233.877 225.821 237.919 225.198 241.952 224.575C250.027 223.365 258.102 222.182 266.122 220.689C274.142 219.195 282.135 217.463 289.725 214.557C293.465 213.045 297.215 211.24 299.784 208.068C302.575 205.111 304.848 201.703 306.506 197.987C309.76 190.451 310.841 182.151 309.624 174.03C310.98 182.175 310.03 190.539 306.881 198.17C305.24 201.957 302.971 205.437 300.169 208.463C299.488 209.242 298.765 209.983 298.001 210.68C297.201 211.35 296.354 211.963 295.468 212.513C293.697 213.578 291.844 214.497 289.926 215.263C286.11 216.753 282.196 217.978 278.212 218.929C274.233 219.928 270.237 220.762 266.213 221.532C258.184 223.053 250.1 224.281 242.034 225.5C238.001 226.105 233.959 226.71 229.954 227.434C227.951 227.801 225.957 228.195 224 228.699C223.027 228.94 222.071 229.247 221.138 229.615C220.695 229.785 220.277 230.013 219.894 230.293C219.731 230.405 219.599 230.556 219.51 230.733C219.409 230.931 219.332 231.14 219.282 231.357C219.075 232.327 218.971 233.316 218.971 234.308C218.971 235.316 218.971 236.333 219.016 237.35C219.108 239.385 219.272 241.411 219.464 243.445C219.867 247.505 220.379 251.565 220.937 255.616C222.107 263.681 227.667 295.933 229.094 303.989Z" fill="#37474F"/>
<path d="M245.656 337.157L296.987 336.763C296.987 336.763 296.63 250.309 299.154 243.61C301.678 236.91 311.042 231.961 322.318 218.865C339.465 198.977 324.495 171.023 324.495 171.023H274.325C274.325 171.023 267.814 187.52 268.198 194.183C268.198 194.183 273.576 194.522 276.84 194.532C276.84 194.532 253.493 213.879 247.531 232.016C242.428 247.505 245.656 337.157 245.656 337.157Z" fill="#263238"/>
<path d="M291.143 195.631C286.477 194.557 281.709 193.991 276.922 193.945C272.083 193.83 267.242 194.069 262.437 194.66C262.414 194.667 262.394 194.681 262.38 194.7C262.366 194.719 262.358 194.742 262.358 194.765C262.358 194.789 262.366 194.812 262.38 194.831C262.394 194.85 262.414 194.864 262.437 194.871C267.22 195.036 272.012 195.292 276.794 195.558C281.577 195.824 286.305 196.209 291.07 196.218C291.138 196.212 291.203 196.182 291.252 196.134C291.302 196.086 291.334 196.023 291.342 195.954C291.351 195.886 291.336 195.816 291.299 195.758C291.263 195.699 291.208 195.654 291.143 195.631Z" fill="#37474F"/>
<path d="M315.651 189.088C313.405 188.794 311.192 188.291 309.039 187.585C307.252 187.216 305.608 186.342 304.302 185.064C301.778 182.315 300.717 178.649 298.76 175.542C298.696 175.432 298.55 175.542 298.568 175.624C299.027 177.773 299.638 179.886 300.397 181.948C300.963 183.72 301.898 185.351 303.141 186.732C306.277 190.004 311.453 189.583 315.587 189.482C315.944 189.518 315.916 189.143 315.651 189.088Z" fill="#37474F"/>
<path d="M270.494 173.049C270.731 176.092 270.896 179.144 271.271 182.168C271.445 183.598 271.573 185.046 271.856 186.457C271.922 187.072 272.193 187.647 272.624 188.089C273.161 188.469 273.796 188.686 274.453 188.712C274.747 188.784 275.053 188.789 275.348 188.725C275.643 188.661 275.92 188.53 276.157 188.343C276.395 188.156 276.586 187.916 276.717 187.644C276.848 187.371 276.915 187.072 276.913 186.769C277.169 184.019 276.365 174.378 276.346 173.59C276.346 173.434 276.849 173.425 276.868 173.59C277.617 179.657 278.614 187.401 277.334 188.721C276.646 189.405 275.736 189.818 274.77 189.887C273.803 189.956 272.844 189.676 272.066 189.097C271.394 188.441 270.984 187.56 270.914 186.622C270.722 185.293 270.658 183.937 270.558 182.608C270.329 179.428 270.045 176.257 269.991 173.076C269.981 172.783 270.466 172.774 270.494 173.049Z" fill="#37474F"/>
<path d="M275.029 189.143C275.128 189.523 275.205 189.908 275.258 190.297C275.34 190.692 275.422 191.077 275.514 191.461C275.605 191.846 275.697 192.222 275.797 192.607C275.898 192.992 275.962 193.377 276.044 193.762C276.05 193.796 276.044 193.832 276.026 193.862C276.008 193.892 275.98 193.914 275.946 193.925C275.913 193.937 275.877 193.935 275.845 193.922C275.813 193.909 275.786 193.885 275.77 193.854C275.592 193.503 275.436 193.142 275.304 192.772C275.176 192.387 275.048 192.002 274.947 191.608C274.846 191.214 274.764 190.838 274.682 190.453C274.567 190.062 274.496 189.66 274.471 189.253C274.481 189.191 274.509 189.134 274.552 189.088C274.595 189.043 274.651 189.013 274.712 189.001C274.773 188.989 274.836 188.996 274.893 189.021C274.95 189.047 274.997 189.089 275.029 189.143Z" fill="#37474F"/>
<path d="M322.556 175.753C323.541 182.229 323.939 188.781 323.744 195.329C323.678 198.632 323.12 201.906 322.089 205.044C321.483 206.589 320.674 208.047 319.684 209.379C318.77 210.726 317.709 212.009 316.648 213.256C312.405 218.26 307.732 222.851 303.196 227.544C300.928 229.89 298.669 232.245 296.557 234.711C295.496 235.919 294.533 237.209 293.676 238.569C292.939 239.97 292.453 241.49 292.24 243.06C291.646 246.25 291.326 249.476 291.06 252.747C290.795 256.019 290.594 259.264 290.439 262.527C290.119 269.052 289.963 275.587 289.808 282.121C289.652 288.656 289.936 315.179 289.954 321.347C289.954 321.714 289.451 321.824 289.396 321.347C289.222 314.813 289.186 308.278 289.103 301.734C289.021 295.19 289.049 288.656 289.103 282.112C289.158 275.568 289.314 269.024 289.597 262.49C289.744 259.218 289.926 255.946 290.183 252.683C290.439 249.421 290.75 246.149 291.335 242.895C291.481 242.079 291.664 241.273 291.893 240.466C292.116 239.639 292.451 238.847 292.889 238.111C293.782 236.71 294.782 235.38 295.88 234.133C298.029 231.65 300.315 229.304 302.592 226.957C307.165 222.283 311.819 217.71 316.118 212.816C317.188 211.588 318.221 210.332 319.172 209.021C320.156 207.744 320.962 206.338 321.568 204.842C322.608 201.766 323.199 198.556 323.324 195.311C323.658 188.782 323.401 182.235 322.556 175.753Z" fill="#37474F"/>
<path d="M264.019 170.969C264.019 170.969 325.528 174.479 325.875 173.984C326.223 173.489 315.13 99.3263 293.466 90.4546C289.213 88.7041 282.199 88.8232 277.727 92.4342C264.494 103.102 262.94 169.951 264.019 170.969Z" fill="#EBEBEB"/>
<path d="M292.204 89.7214L289.04 128.654L298.184 197.226L334.764 193.955C334.764 193.955 314.792 118.499 307.741 105.971C299.803 91.7835 292.204 89.7214 292.204 89.7214Z" fill="#60A5FA"/>
<path d="M275.706 92.8191C275.706 92.8191 269.844 128.003 270.091 128.709C270.338 129.415 265.354 192.745 265.354 192.745L250.722 180.225C250.722 180.225 258.815 162.711 258.952 161.19C259.09 159.668 267.86 115.612 270.027 106.567C272.194 97.5207 275.706 92.8191 275.706 92.8191Z" fill="#60A5FA"/>
<path d="M300.315 94.4778C321.815 112.909 342.382 144.06 341.842 160.979C341.312 177.677 335.569 175.817 333.932 175.643C323.872 174.561 302.135 127.068 295.715 107.868C289.295 88.6672 295.002 89.9136 300.315 94.4778Z" fill="#60A5FA"/>
<path d="M321.138 162.033C320.059 159.879 318.943 157.753 317.901 155.617L314.7 149.202C312.588 144.885 310.439 140.587 308.399 136.233C306.36 131.88 304.247 127.572 302.226 123.21C301.22 121.038 300.224 118.847 299.273 116.639C298.321 114.43 297.361 112.157 296.447 109.912C297.846 114.528 299.501 119.062 301.403 123.494C303.232 127.939 305.29 132.302 307.338 136.664C309.387 141.027 311.609 145.298 313.895 149.495C316.182 153.693 318.504 157.982 321.138 162.033Z" fill="#263238"/>
<path d="M298.541 115.613C298.162 114.841 297.734 114.094 297.261 113.376C297.023 113.019 296.804 112.661 296.547 112.313C296.291 111.965 296.063 111.607 295.779 111.268C295.942 112.133 296.278 112.956 296.767 113.688C297.237 114.432 297.838 115.084 298.541 115.613Z" fill="#263238"/>
<path d="M248.143 175.945C254.545 170.941 251.326 156.24 247.293 131.165C246.589 126.766 217.389 119.067 216.849 123.833C216.172 129.79 220.443 154.481 223.251 161.281C228.774 174.662 240.663 181.81 248.143 175.945Z" fill="#CF7D72"/>
<path d="M219.135 134.969C216.255 125.85 215.907 114.751 217.188 111.002C218.468 107.254 228.326 96.2834 231.06 94.2671C233.795 92.2508 246.982 94.7345 249.945 95.4035C252.313 95.9443 253.969 98.4005 249.46 100.573C243.671 103.322 237.398 101.599 235.99 102.818C234.581 104.037 233.155 110.599 234.984 112.652C236.072 113.853 239.739 114.357 241.925 112.405C244.11 110.452 244.11 107.135 246.287 103.844C248.463 100.554 253.676 99.262 254.398 100.545C255.121 101.828 253.63 103.02 252.469 108.555C251.728 112.111 252.935 117.509 250.722 123.925C249.418 127.101 247.906 130.187 246.195 133.163L219.135 134.969Z" fill="#CF7D72"/>
<path d="M223.095 116.556C222.364 111.974 222.464 102.332 225.61 96.2831C227.741 92.1864 235.569 82.3341 238.514 84.2129C242.721 86.889 234.024 100.407 233.484 102.286C231.82 108.051 234.097 115.594 234.097 115.594L223.095 116.556Z" fill="#CF7D72"/>
<path d="M232.935 108.83C232.673 107.478 232.575 106.1 232.643 104.724C232.68 104.023 232.781 103.327 232.944 102.644C233.124 101.963 233.372 101.303 233.685 100.673C234.28 99.4269 234.929 98.2355 235.624 97.0624C236.319 95.8893 237.05 94.7528 237.764 93.5889C237.34 94.8866 236.83 96.1542 236.237 97.3832L234.508 101.049C233.918 102.236 233.526 103.511 233.347 104.825C233.173 106.117 233.063 107.465 232.935 108.83Z" fill="#263238"/>
<path d="M222.217 117.546C220.763 113.193 219.291 103.9 221.348 97.5299C222.738 93.2224 228.71 82.4169 231.856 83.7825C236.364 85.6888 230.155 100.179 229.935 102.112C229.277 107.96 232.679 114.879 232.679 114.879L222.217 117.546Z" fill="#CF7D72"/>
<path d="M230.667 108.803C229.845 106.965 229.406 104.978 229.378 102.965C229.512 101.964 229.741 100.979 230.064 100.023C230.32 99.1062 230.594 98.1255 230.878 97.1907C231.426 95.3027 231.996 93.4239 232.588 91.5543C233.155 89.7213 233.777 87.7875 233.274 85.8445C233.66 86.7707 233.814 87.7777 233.722 88.7773C233.631 89.7702 233.459 90.7541 233.21 91.7192C232.78 93.6439 232.295 95.541 231.737 97.4382C231.481 98.3547 231.207 99.3261 230.923 100.27L230.503 101.682C230.348 102.118 230.241 102.569 230.183 103.029C230.101 104.966 230.264 106.906 230.667 108.803Z" fill="#263238"/>
<path d="M216.584 120.653C216.2 114.237 216.73 104.614 217.498 101.819C218.267 99.0235 222.437 88.8229 225.729 88.1906C229.808 87.4024 227.558 95.8433 226.753 99.381C225.948 102.919 227.503 107.822 227.503 107.822L216.584 120.653Z" fill="#CF7D72"/>
<path d="M226.205 88.1448C226.616 88.1505 227.019 88.2609 227.375 88.4655C227.739 88.692 228.015 89.0341 228.162 89.437C228.42 90.2314 228.514 91.0705 228.436 91.9024C228.317 93.5374 228.044 95.1576 227.622 96.7415C227.153 98.2566 226.867 99.8229 226.772 101.406C226.813 102.986 227.084 104.552 227.576 106.053C228.491 109.105 230 112.019 230.695 115.218C231.31 118.444 231.194 121.767 230.357 124.942C230.636 123.351 230.753 121.736 230.704 120.121C230.68 118.52 230.468 116.926 230.073 115.374C229.159 112.304 227.677 109.426 226.708 106.273C226.196 104.683 225.934 103.022 225.93 101.351C226.049 99.7208 226.391 98.1141 226.945 96.5765C227.433 95.047 227.782 93.4765 227.988 91.8841C228.127 91.1059 228.106 90.3073 227.924 89.5379C227.808 89.1609 227.582 88.8272 227.276 88.5791C226.97 88.3311 226.597 88.1799 226.205 88.1448Z" fill="#263238"/>
<path d="M250.722 145.444L215.669 136.802C215.669 136.802 220.242 159.246 225.445 166.743C230.649 174.24 238.587 181.582 248.308 176.541C255.569 172.765 250.722 145.444 250.722 145.444Z" fill="#60A5FA"/>
<path d="M248.125 152.061C246.351 151.502 244.467 151.09 242.702 150.64C240.937 150.191 239.044 149.724 237.215 149.348C233.557 148.533 229.899 147.735 226.241 146.984L223.242 146.388C222.163 146.186 221.065 146.122 219.995 145.911C219.978 145.911 219.962 145.918 219.95 145.93C219.938 145.942 219.931 145.959 219.931 145.976C219.931 145.993 219.938 146.009 219.95 146.021C219.962 146.033 219.978 146.04 219.995 146.04C220.91 146.26 221.742 146.608 222.629 146.837C223.516 147.066 224.458 147.304 225.372 147.524C227.201 147.958 229.03 148.38 230.859 148.789C234.517 149.605 238.175 150.411 241.833 151.117C243.9 151.511 245.985 151.969 248.07 152.244C248.082 152.248 248.095 152.249 248.107 152.248C248.12 152.247 248.132 152.243 248.143 152.237C248.154 152.231 248.164 152.223 248.172 152.213C248.179 152.203 248.185 152.192 248.189 152.18C248.193 152.168 248.194 152.156 248.193 152.143C248.191 152.131 248.188 152.118 248.182 152.107C248.176 152.096 248.168 152.087 248.158 152.079C248.148 152.071 248.137 152.065 248.125 152.061Z" fill="#263238"/>
<path d="M249.57 145.151C249.972 145.197 250.356 145.252 250.75 145.316H250.814V145.398C251.585 148.424 252.108 151.507 252.377 154.618C252.701 157.734 252.667 160.877 252.277 163.985C252.048 160.869 251.783 157.789 251.481 154.71C251.179 151.63 250.841 148.542 250.567 145.435L250.649 145.527C250.32 145.435 249.945 145.298 249.57 145.151Z" fill="#263238"/>
<path d="M274.188 95.5135C274.188 95.5135 274.188 95.4677 274.243 95.5135C274.389 98.9046 274.938 106.741 280.068 105.714C282.135 105.302 283.9 103.771 285.354 102.296C286.837 100.77 288.152 99.0891 289.277 97.2824C290.605 95.2899 291.77 93.1935 292.761 91.0135C292.761 90.9219 292.935 91.0135 292.899 91.0869C291.883 93.2773 291.07 95.5319 289.862 97.6215C288.706 99.6358 287.285 101.485 285.637 103.12C284.083 104.633 282.19 106.182 279.995 106.511C279.033 106.655 278.051 106.459 277.217 105.958C276.383 105.456 275.749 104.68 275.423 103.762C274.414 101.136 273.993 98.3204 274.188 95.5135Z" fill="#263238"/>
<path d="M279.172 102.598C284.513 103.23 290.256 95.99 292.058 90.491C292.176 90.1153 290.988 86.6142 289.744 82.2426C288.994 79.6122 288.235 76.6703 287.723 73.9299L271.363 81.2619C272.973 84.5051 274.18 87.934 274.957 91.4717C275.026 91.8493 275.057 92.2333 275.048 92.6173C275.048 92.6723 275.048 92.7364 275.048 92.8098C275.112 95.0735 275.149 102.121 279.172 102.598Z" fill="#CF7D72"/>
<path d="M271.363 81.3263C272.973 84.5702 274.183 87.9987 274.966 91.536C275.028 91.9115 275.056 92.2919 275.048 92.6725C275.044 92.7366 275.044 92.8009 275.048 92.865C275.646 92.8502 276.24 92.7734 276.822 92.6358C287.165 90.2346 287.147 77.7978 286.936 74.3059L271.363 81.3263Z" fill="#263238"/>
<path d="M289.936 55.7831C291.948 61.9328 289.021 79.887 284.741 83.9654C278.486 89.8768 268.07 90.6466 263.013 83.0489C258.111 75.7169 262.291 52.3829 267.128 48.6528C274.243 43.1905 286.964 46.6915 289.936 55.7831Z" fill="#CF7D72"/>
<path d="M272.213 67.1663C272.213 67.1663 272.295 67.2396 272.286 67.2854C272.085 68.486 272.049 69.8974 273.082 70.4473C273.082 70.4473 273.082 70.5298 273.082 70.5115C271.756 70.1449 271.82 68.2752 272.213 67.1663Z" fill="#263238"/>
<path d="M273.456 66.0573C275.413 66.1856 275.02 70.0899 273.209 69.9799C271.399 69.87 271.819 65.9565 273.456 66.0573Z" fill="#263238"/>
<path d="M265.116 66.4421C265.116 66.3963 265.016 66.4971 265.016 66.5429C264.933 67.7618 264.632 69.1366 263.498 69.4299V69.494C264.851 69.439 265.235 67.606 265.116 66.4421Z" fill="#263238"/>
<path d="M264.165 65.0765C262.236 64.7282 261.696 68.6233 263.479 68.9349C265.263 69.2465 265.784 65.3606 264.165 65.0765Z" fill="#263238"/>
<path d="M274.499 63.8211C273.999 63.6231 273.51 63.3967 273.036 63.1429C272.494 62.965 272.021 62.6222 271.682 62.1623C271.607 61.9941 271.59 61.8059 271.633 61.6268C271.676 61.4477 271.777 61.288 271.92 61.1725C272.235 60.9881 272.593 60.8909 272.958 60.8909C273.323 60.8909 273.681 60.9881 273.996 61.1725C274.695 61.4464 275.266 61.9729 275.596 62.648C275.647 62.8043 275.656 62.9714 275.62 63.132C275.585 63.2925 275.507 63.4406 275.395 63.5605C275.282 63.6805 275.14 63.768 274.982 63.8138C274.825 63.8597 274.658 63.8622 274.499 63.8211Z" fill="#263238"/>
<path d="M262.857 62.9593C263.406 62.9593 263.9 62.7943 264.439 62.7118C265.011 62.6967 265.562 62.4974 266.012 62.1436C266.133 62.0061 266.204 61.8319 266.214 61.649C266.224 61.4662 266.172 61.2853 266.067 61.1354C265.818 60.8668 265.502 60.6698 265.151 60.5651C264.801 60.4603 264.429 60.4516 264.074 60.5397C263.326 60.6078 262.631 60.9545 262.126 61.5112C262.029 61.6474 261.971 61.8075 261.959 61.9741C261.946 62.1408 261.979 62.3078 262.055 62.4569C262.13 62.606 262.245 62.7317 262.386 62.8202C262.528 62.9088 262.69 62.9569 262.857 62.9593Z" fill="#263238"/>
<path d="M272.423 77.9902C272.158 78.3018 271.911 78.7234 271.508 78.7967C271.059 78.8351 270.607 78.7757 270.182 78.6226C270.137 78.6226 270.109 78.6225 270.137 78.6867C270.332 78.9069 270.583 79.0706 270.862 79.1608C271.142 79.2511 271.441 79.2646 271.728 79.1999C271.969 79.1127 272.179 78.9553 272.33 78.748C272.482 78.5407 272.568 78.2928 272.578 78.036C272.581 78.0258 272.582 78.015 272.581 78.0044C272.58 77.9938 272.577 77.9836 272.572 77.9742C272.567 77.9648 272.56 77.9566 272.552 77.9499C272.543 77.9432 272.534 77.9382 272.523 77.9352C272.513 77.9322 272.503 77.9312 272.492 77.9323C272.481 77.9335 272.471 77.9367 272.462 77.9418C272.453 77.9469 272.444 77.9538 272.438 77.9621C272.431 77.9704 272.426 77.9799 272.423 77.9902Z" fill="#263238"/>
<path d="M271.243 74.3607C270.889 74.8091 270.447 75.1791 269.943 75.4472C269.439 75.7154 268.886 75.876 268.317 75.9188C267.822 75.9599 267.323 75.9321 266.835 75.8363C266.653 75.8032 266.473 75.7604 266.296 75.708C266.231 75.6913 266.175 75.6532 266.135 75.5999C266.095 75.5466 266.074 75.4813 266.076 75.4147C266.076 75.3689 266.415 72.8302 266.415 72.8302C266.058 72.9676 264.247 73.5817 264.321 73.096C264.97 69.0909 265.683 64.6275 267.165 60.7783C267.168 60.7638 267.175 60.7502 267.183 60.7383C267.192 60.7263 267.203 60.7162 267.216 60.7085C267.229 60.7009 267.243 60.6958 267.258 60.6936C267.272 60.6914 267.287 60.6922 267.302 60.6958C267.316 60.6994 267.33 60.7058 267.342 60.7147C267.354 60.7235 267.364 60.7346 267.371 60.7474C267.379 60.7602 267.384 60.7743 267.386 60.7891C267.388 60.8038 267.388 60.8188 267.384 60.8332C266.918 64.71 265.775 68.4768 265.244 72.3628C265.889 72.1346 266.564 72.0019 267.247 71.9687C267.311 71.9687 266.753 75.1214 266.753 75.1489C267.509 75.3 268.287 75.2968 269.041 75.1393C269.795 74.9818 270.51 74.6733 271.143 74.2324C271.243 74.1774 271.326 74.2691 271.243 74.3607Z" fill="#263238"/>
<path d="M267.448 75.3506C267.9 76.0613 268.531 76.6399 269.277 77.0277C269.68 77.2325 270.138 77.3061 270.585 77.2385C271.563 77.0736 271.673 76.1937 271.563 75.4055C271.505 74.9969 271.397 74.5969 271.243 74.2141C270.133 74.9913 268.802 75.3898 267.448 75.3506Z" fill="#263238"/>
<path d="M269.25 77.0276C269.653 77.2323 270.11 77.306 270.557 77.2384C271.536 77.0734 271.646 76.1936 271.536 75.4054C271.028 75.3769 270.525 75.5217 270.11 75.8164C269.695 76.111 269.392 76.538 269.25 77.0276Z" fill="#FF9CBD"/>
<path d="M290.749 71.8861C285.948 71.9778 283.744 66.1397 285.098 61.603C285.098 61.603 272.295 62.6479 272.203 52.3831C271.124 53.758 269.748 54.8704 268.178 55.637C266.609 56.4036 264.887 56.8045 263.141 56.8098L262.126 60.4758C260.845 60.0267 259.602 55.9941 262.94 53.2446C262.94 53.2446 263.415 48.1489 267.32 45.2803C268.378 44.4534 269.653 43.9504 270.989 43.8317C272.326 43.7131 273.669 43.9837 274.855 44.6112C277.15 43.117 279.935 42.5779 282.62 43.1082C284.025 43.4 285.341 44.026 286.455 44.9335C287.569 45.8411 288.449 47.0035 289.021 48.323C289.021 48.323 295.258 49.8444 296.108 54.3811C296.373 55.6645 296.366 56.9894 296.088 58.2699C295.809 59.5504 295.264 60.7579 294.49 61.8139C294.49 61.8139 295.98 63.6468 294.983 67.4411C294.307 69.9065 292.194 71.8311 290.749 71.8861Z" fill="#263238"/>
<path d="M272.524 51.4944C272.388 52.318 272.339 53.1535 272.377 53.9873C272.388 54.8109 272.502 55.6299 272.716 56.4251C273.114 58.0015 274.094 59.3675 275.459 60.2469C276.868 61.0792 278.454 61.566 280.086 61.6675C280.919 61.6675 281.751 61.7591 282.574 61.7316C283.397 61.7041 284.238 61.6217 285.089 61.6033C284.266 61.7591 283.434 61.8783 282.592 62.0158C281.751 62.1532 280.91 62.0799 280.059 62.1166C278.33 62.0817 276.637 61.6087 275.139 60.7418C273.669 59.7706 272.638 58.2601 272.268 56.5351C271.93 54.8599 272.018 53.1265 272.524 51.4944Z" fill="#263238"/>
<path d="M288.985 48.3599C290.6 48.4533 292.179 48.8808 293.621 49.6155C295.124 50.3437 296.322 51.5803 297.005 53.1073C297.296 53.8853 297.46 54.7055 297.489 55.536C297.545 56.3598 297.462 57.1871 297.242 57.9831C296.825 59.5751 295.831 60.954 294.453 61.8507C295.65 60.8182 296.476 59.421 296.804 57.8731C297.133 56.3441 297.012 54.7522 296.456 53.2906C296.172 52.5831 295.756 51.9362 295.231 51.3843C294.684 50.8366 294.07 50.3621 293.402 49.9729C292.024 49.2036 290.533 48.6591 288.985 48.3599Z" fill="#263238"/>
<path d="M274.856 44.6477C273.678 44.1467 272.427 43.8373 271.152 43.7312C269.909 43.6034 268.655 43.8194 267.527 44.3559C266.398 44.8924 265.438 45.7287 264.75 46.774C264.017 47.8247 263.447 48.9803 263.059 50.2017C263.239 48.9015 263.688 47.6531 264.375 46.5357C265.041 45.3552 266.055 44.4103 267.279 43.831C268.502 43.2517 269.874 43.0663 271.207 43.3005C272.506 43.4794 273.751 43.9391 274.856 44.6477Z" fill="#263238"/>
<path d="M265.674 57.0758C267.089 56.6704 268.427 56.0324 269.634 55.1878C270.222 54.766 270.751 54.2666 271.207 53.7031C271.656 53.1342 272.046 52.5199 272.368 51.8701C272.259 52.6337 271.988 53.365 271.573 54.0147C271.158 54.6788 270.617 55.2549 269.981 55.7102C269.354 56.1642 268.66 56.5167 267.924 56.755C267.196 56.9836 266.436 57.092 265.674 57.0758Z" fill="#263238"/>
<path d="M272.67 73.9115C271.302 73.5476 270.134 72.6563 269.419 71.432C268.705 70.2078 268.502 68.75 268.856 67.3769C269.11 66.4078 269.629 65.5295 270.356 64.8417C271.083 64.154 271.988 63.6844 272.968 63.4866C273.948 63.2887 274.963 63.3704 275.899 63.7224C276.835 64.0744 277.654 64.6825 278.262 65.4776C278.87 66.2728 279.243 67.223 279.339 68.2201C279.435 69.2173 279.249 70.2214 278.804 71.1183C278.359 72.0151 277.671 72.7687 276.819 73.2933C275.968 73.8179 274.986 74.0924 273.987 74.0857C273.543 74.0767 273.101 74.0183 272.67 73.9115ZM269.552 67.5602C269.321 68.4456 269.358 69.3796 269.657 70.2441C269.956 71.1087 270.504 71.865 271.232 72.4174C271.96 72.9699 272.835 73.2938 273.746 73.3481C274.657 73.4025 275.564 73.1849 276.352 72.7228C277.141 72.2607 277.774 71.5749 278.173 70.752C278.573 69.9291 278.72 69.0061 278.596 68.0995C278.472 67.193 278.082 66.3436 277.477 65.6587C276.871 64.9738 276.077 64.4842 275.194 64.2517C274.82 64.1555 274.437 64.1032 274.051 64.0959C273.026 64.096 272.03 64.4359 271.218 65.0625C270.406 65.6891 269.823 66.5672 269.561 67.5602H269.552Z" fill="#455A64"/>
<path d="M261.961 72.4819C259.794 72.2161 258.303 69.6133 258.678 66.6896C258.818 65.3613 259.371 64.1107 260.26 63.1153C260.614 62.6647 261.078 62.3133 261.607 62.0953C262.136 61.8773 262.713 61.8001 263.28 61.8711C263.848 61.9421 264.388 62.1589 264.847 62.5006C265.307 62.8422 265.67 63.2971 265.903 63.821C266.521 65.0025 266.752 66.3497 266.561 67.6703C266.223 70.4198 264.357 72.5186 262.309 72.5094L261.961 72.4819ZM260.781 63.5827C259.995 64.4665 259.505 65.5759 259.382 66.7538C259.071 69.2925 260.297 71.5379 262.053 71.7579C263.808 71.9778 265.546 70.099 265.857 67.5603C266.022 66.3885 265.821 65.1941 265.281 64.1418C265.085 63.7292 264.792 63.3703 264.427 63.0958C264.062 62.8212 263.637 62.6393 263.187 62.5654C263.098 62.556 263.01 62.556 262.921 62.5654C262.514 62.5756 262.112 62.6714 261.744 62.8466C261.375 63.0219 261.047 63.2726 260.781 63.5827Z" fill="#455A64"/>
<path d="M268.921 68.0094L269.36 67.597C268.756 66.9463 267.284 65.984 266.049 67.0196L266.433 67.4779C267.54 66.5522 268.866 67.9453 268.921 68.0094Z" fill="#455A64"/>
<path d="M293.392 72.9402L293.959 72.7294C293.859 72.4728 292.972 70.1449 291.664 69.76C290.356 69.375 279.282 68.0736 278.934 68.0645V68.6602C281.257 68.7335 290.576 70.0624 291.518 70.3374C292.46 70.6123 293.164 72.3078 293.392 72.9402Z" fill="#455A64"/>
<path d="M285.729 71.529C285.729 71.529 289.762 65.7459 292.386 67.1848C295.011 68.6237 291.975 77.0097 288.902 78.1828C288.517 78.3568 288.101 78.4512 287.679 78.4601C287.257 78.4691 286.837 78.3926 286.445 78.2351C286.053 78.0777 285.697 77.8425 285.398 77.5437C285.099 77.245 284.863 76.8887 284.705 76.4964L285.729 71.529Z" fill="#CF7D72"/>
<path d="M291.453 69.5674V69.6499C289.295 70.5664 288.161 72.5277 287.366 74.6081C287.492 74.3922 287.663 74.2061 287.867 74.0624C288.072 73.9188 288.305 73.8211 288.551 73.7758C288.796 73.7306 289.049 73.739 289.291 73.8003C289.533 73.8617 289.759 73.9747 289.954 74.1315C290.008 74.1774 289.954 74.2598 289.889 74.2507C289.512 74.1299 289.106 74.1293 288.727 74.2491C288.349 74.3689 288.017 74.6032 287.777 74.9197C287.378 75.4556 287.037 76.0333 286.762 76.6427C286.661 76.8352 286.314 76.7344 286.387 76.5053C286.387 73.6641 288.499 69.8423 291.453 69.5674Z" fill="#263238"/>
<path d="M274.874 90.8026L279.913 100.435L291.07 86.4951L295.011 90.2069C295.011 90.2069 284.878 111.625 284.705 110.727L279.702 102.479L274.353 109.105L273.31 93.9462L274.874 90.8026Z" fill="#EBEBEB"/>
<path d="M273.411 101.627C273.328 99.1153 273.164 96.5858 273.191 94.0746C273.191 93.9921 273.328 93.9371 273.356 94.0746C274.096 96.43 274.389 105.989 274.627 108.308C274.846 108.024 279.611 102.451 279.675 102.525C280.708 103.808 284.375 109.802 284.64 110.361C286.241 106.951 292.441 94.5512 294.416 91.2884C294.426 91.2678 294.444 91.2518 294.465 91.2441C294.487 91.2364 294.51 91.2375 294.531 91.2472C294.551 91.2569 294.567 91.2745 294.575 91.2959C294.583 91.3174 294.582 91.3411 294.572 91.3618C293.218 94.9178 285.034 111.607 284.887 111.525C282.987 108.716 281.235 105.81 279.638 102.818C278.861 104.009 274.151 110.232 274.051 109.866C273.695 107.132 273.482 104.382 273.411 101.627Z" fill="#263238"/>
<path d="M336.245 175.698C328.756 176.413 319.711 170.199 296.383 151.603C293.145 149.028 305.162 121.295 308.756 123.87C313.273 127.114 330.118 140.679 331.225 141.824C340.562 151.502 341.321 175.212 336.245 175.698Z" fill="#CF7D72"/>
<path d="M316.996 132.76C316.996 132.76 310.539 122.825 305.592 118.664C298.889 113.082 290.823 111.039 287.384 110.415C280.215 109.05 261.934 110.709 261.495 116.07C261.093 120.918 279.693 118.279 279.693 118.279C279.693 118.279 260.288 117.839 260.882 123.778C261.477 129.717 282.885 125.409 282.885 125.409C282.885 125.409 262.94 125.409 264.513 131.421C265.702 136.004 285.318 133.172 285.318 133.172C285.318 133.172 268.171 133.282 269.195 138.02C270.32 143.244 288.591 141.796 288.591 141.796C293.21 153.381 300.379 156.891 305.619 158.88C306.836 159.32 316.996 132.76 316.996 132.76Z" fill="#CF7D72"/>
<path d="M286.387 117.958C284.11 117.83 281.815 117.674 279.519 117.748C277.224 117.821 274.947 117.968 272.697 118.242C269.728 118.554 266.804 119.206 263.982 120.185C269.112 118.82 277.279 118.444 279.529 118.352C281.778 118.261 284.101 118.105 286.36 118.032C286.433 118.05 286.387 117.968 286.387 117.958Z" fill="#263238"/>
<path d="M286.772 126.216C283.854 126.17 280.955 126.015 278.038 126.106C275.121 126.198 272.387 126.519 269.497 126.803C269.277 126.803 269.36 126.94 269.579 126.922C272.487 126.757 275.176 126.83 278.075 126.693C280.974 126.555 283.882 126.317 286.772 126.29C286.817 126.28 286.808 126.216 286.772 126.216Z" fill="#263238"/>
<path d="M288.381 133.236C283.91 133.062 279.433 133.348 275.02 134.089C274.801 134.089 274.929 134.254 275.157 134.235C279.593 133.869 283.068 133.548 288.372 133.392C288.454 133.392 288.472 133.236 288.381 133.236Z" fill="#263238"/>
<path d="M317.151 128.929L306.223 163.169C306.223 163.169 331.042 179.254 336.831 175.514C342.62 171.775 339.776 151.621 333.731 143.73C331.198 140.44 317.151 128.929 317.151 128.929Z" fill="#60A5FA"/>
<path d="M316.794 130.066L317.215 128.947H317.114C319.437 131.01 321.769 133.062 324.064 135.152C326.36 137.242 328.637 139.313 330.841 141.503C331.942 142.573 332.975 143.712 333.932 144.913C334.842 146.141 335.646 147.444 336.337 148.808C337.71 151.586 338.636 154.565 339.08 157.634C338.965 154.492 338.248 151.403 336.968 148.533C336.329 147.085 335.535 145.711 334.599 144.436C333.643 143.188 332.605 142.006 331.49 140.899C329.268 138.699 326.917 136.628 324.567 134.611C322.217 132.595 319.739 130.689 317.251 128.847L317.178 128.801V128.883L316.794 130.066Z" fill="#263238"/>
<path d="M322.372 137.755C321.723 139.432 321.202 141.173 320.653 142.887C320.105 144.601 319.565 146.315 319.053 148.047C318.029 151.493 317.014 154.948 316.053 158.422C315.788 159.338 315.523 160.319 315.276 161.272C315.029 162.225 314.883 163.352 314.608 164.37C314.608 164.452 314.7 164.48 314.727 164.37C314.992 163.527 315.386 162.72 315.642 161.877C315.898 161.034 316.209 160.136 316.483 159.256C317.014 157.533 317.538 155.81 318.056 154.087C319.089 150.641 320.105 147.176 321.019 143.703C321.54 141.732 322.116 139.762 322.519 137.773C322.512 137.761 322.502 137.75 322.49 137.742C322.478 137.734 322.464 137.729 322.45 137.727C322.436 137.725 322.422 137.727 322.408 137.731C322.395 137.736 322.382 137.744 322.372 137.755Z" fill="#263238"/>
<path d="M307.192 160.117C306.945 161.162 306.662 162.188 306.388 163.215L306.324 163.022C308.454 164.324 310.622 165.589 312.789 166.826C314.956 168.063 317.151 169.282 319.364 170.437C320.462 171.023 321.596 171.555 322.702 172.123C323.809 172.692 324.961 173.186 326.104 173.663C328.385 174.685 330.767 175.465 333.21 175.991C330.701 175.776 328.237 175.199 325.894 174.277C323.523 173.42 321.214 172.403 318.98 171.234C316.73 170.098 314.545 168.851 312.405 167.522C310.265 166.194 308.18 164.773 306.15 163.307L306.04 163.224L306.086 163.114C306.433 162.115 306.799 161.107 307.192 160.117Z" fill="#263238"/>
<path d="M53.8484 37.3207C53.8462 40.6019 54.7543 43.8191 56.4713 46.613C58.1882 49.4068 60.6463 51.6673 63.5711 53.1419C66.4959 54.6166 69.7722 55.2473 73.034 54.9636C76.2958 54.6799 79.4146 53.493 82.0422 51.5355L90.6933 53.7534L87.0902 45.6791C88.3589 43.3059 89.0709 40.6739 89.1719 37.9834C89.273 35.2929 88.7605 32.6148 87.6735 30.1527C86.5864 27.6905 84.9535 25.5092 82.8988 23.7747C80.844 22.0402 78.4217 20.7981 75.816 20.1429C73.2102 19.4877 70.4897 19.4367 67.8613 19.9936C65.2329 20.5506 62.7659 21.701 60.6478 23.3572C58.5298 25.0135 56.8165 27.132 55.6382 29.5516C54.46 31.9712 53.8479 34.6283 53.8484 37.3207Z" fill="#60A5FA"/>
<path d="M53.8484 37.3206C53.8713 40.5949 54.7988 43.7989 56.5279 46.5772C56.9566 47.2682 57.4269 47.9324 57.9362 48.566C58.4649 49.1798 59.0299 49.7613 59.628 50.3073C60.8186 51.4192 62.1688 52.346 63.6335 53.0568C65.0798 53.7724 66.6189 54.2814 68.206 54.5691C68.9974 54.7108 69.7983 54.7935 70.602 54.8165C71.4022 54.8853 72.2068 54.8853 73.0071 54.8165C76.2135 54.5088 79.2701 53.3089 81.8319 51.3522L81.96 51.2513L82.1063 51.2972L90.7848 53.4326L90.3185 53.9917L86.6605 45.9265L86.569 45.734L86.6788 45.5416C87.8977 43.2233 88.588 40.6627 88.6998 38.0446C88.8046 35.4207 88.3137 32.8072 87.264 30.4011C86.2116 27.9779 84.645 25.8137 82.6733 24.0589C80.6795 22.3222 78.3141 21.0679 75.7597 20.3929C73.1936 19.7157 70.5076 19.6311 67.9042 20.1455C63.9435 20.9429 60.38 23.0889 57.8181 26.2193C55.2563 29.3498 53.8537 33.2719 53.8484 37.3206ZM53.8484 37.3206C53.8474 34.627 54.4559 31.9681 55.628 29.5441C56.8002 27.1201 58.5055 24.994 60.6157 23.3257C62.735 21.6591 65.2008 20.4908 67.831 19.9072C70.4875 19.3206 73.2422 19.3457 75.8876 19.9807C78.5329 20.6158 81.0001 21.8441 83.1031 23.5732C86.2992 26.2173 88.4817 29.8902 89.2787 33.9661C90.0758 38.0421 89.4381 42.2689 87.4744 45.9265V45.5416L91.0409 53.6342L91.3793 54.4041L90.5745 54.1841L81.9417 51.9021L82.216 51.8471C79.5357 53.7951 76.3716 54.9652 73.0711 55.2289C72.2522 55.2885 71.43 55.2885 70.6111 55.2289C69.7911 55.1804 68.9754 55.0763 68.1694 54.9173C64.9457 54.2518 61.9678 52.7073 59.564 50.454C58.3455 49.3627 57.3028 48.0889 56.473 46.678C54.7492 43.8632 53.8405 40.6233 53.8484 37.3206Z" fill="#263238"/>
<path d="M72.1477 39.1535V40.9865C72.1514 41.1669 72.1187 41.3461 72.0516 41.5135C71.9844 41.6809 71.8842 41.8329 71.7569 41.9605C71.6296 42.088 71.4779 42.1885 71.3109 42.2558C71.1439 42.3231 70.9651 42.3558 70.7851 42.3521C70.4229 42.3521 70.0753 42.2085 69.8184 41.9527C69.5614 41.6968 69.4158 41.3495 69.4134 40.9865V38.0812C69.4134 38.0812 69.4134 38.0812 69.4134 38.0262C69.4134 37.9712 69.4134 38.0262 69.4134 37.9621C69.4249 37.602 69.5734 37.26 69.8285 37.0061C70.0835 36.7522 70.4257 36.6057 70.7851 36.5965C71.2094 36.6195 71.634 36.5556 72.0329 36.4087C72.4318 36.2619 72.7966 36.035 73.1051 35.7421C73.4136 35.4492 73.6593 35.0964 73.8272 34.7052C73.9951 34.314 74.0817 33.8925 74.0817 33.4667C74.0817 33.0408 73.9951 32.6194 73.8272 32.2281C73.6593 31.8369 73.4136 31.4841 73.1051 31.1912C72.7966 30.8983 72.4318 30.6715 72.0329 30.5246C71.634 30.3777 71.2094 30.3138 70.7851 30.3368C70.2481 30.3289 69.7184 30.4617 69.2484 30.7221C68.7784 30.9826 68.3845 31.3616 68.1056 31.8216C68.014 31.9801 67.8919 32.1188 67.7463 32.2297C67.6008 32.3405 67.4347 32.4213 67.2578 32.4674C67.0808 32.5134 66.8965 32.5238 66.7155 32.4979C66.5345 32.472 66.3605 32.4103 66.2035 32.3165C65.9029 32.132 65.686 31.8372 65.5989 31.4949C65.5118 31.1526 65.5614 30.7897 65.7371 30.4835C66.2248 29.6414 66.9136 28.9339 67.7418 28.4248C68.5699 27.9157 69.5113 27.6208 70.4813 27.5667C71.4513 27.5126 72.4196 27.701 73.2989 28.1149C74.1783 28.5288 74.9413 29.1553 75.5191 29.9379C76.097 30.7206 76.4717 31.635 76.6096 32.5988C76.7475 33.5626 76.6441 34.5456 76.3089 35.4595C75.9736 36.3733 75.417 37.1894 74.6891 37.8342C73.9611 38.479 73.0847 38.9324 72.1386 39.1535H72.1477ZM72.1477 45.2665V45.7706C72.1527 45.9517 72.1209 46.132 72.0543 46.3004C71.9877 46.4689 71.8877 46.622 71.7603 46.7506C71.6329 46.8791 71.4808 46.9804 71.3131 47.0483C71.1455 47.1161 70.9659 47.1492 70.7851 47.1454C70.4213 47.1454 70.0724 47.0005 69.8151 46.7427C69.5579 46.4849 69.4134 46.1352 69.4134 45.7706V45.2665C69.4205 44.905 69.5675 44.5604 69.8235 44.3056C70.0795 44.0508 70.4243 43.9057 70.7851 43.901C70.9624 43.8985 71.1384 43.9313 71.303 43.9974C71.4677 44.0634 71.6176 44.1614 71.7443 44.2858C71.8709 44.4102 71.9718 44.5584 72.041 44.722C72.1102 44.8856 72.1465 45.0614 72.1477 45.2391V45.2665Z" fill="white"/>
<g filter="url(#filter1_b_618_1160)">
<path d="M159.829 43.8737C159.838 49.5466 158.272 55.1102 155.308 59.9428C152.343 64.7754 148.096 68.6867 143.041 71.2397C137.986 73.7926 132.322 74.8867 126.683 74.3997C121.043 73.9126 115.65 71.8636 111.105 68.4816L96.1531 72.3034L102.381 58.3452C100.187 54.2432 98.9561 49.6938 98.7811 45.0431C98.6061 40.3925 99.4918 35.7631 101.371 31.5072C103.25 27.2513 106.073 23.4809 109.625 20.483C113.177 17.4851 117.364 15.3386 121.869 14.2068C126.373 13.075 131.076 12.9877 135.619 13.9516C140.162 14.9156 144.426 16.9052 148.086 19.7693C151.746 22.6334 154.706 26.2965 156.741 30.4798C158.776 34.6631 159.832 39.2564 159.829 43.9104V43.8737Z" fill="white"/>
</g>
<path d="M159.83 43.8736C159.815 49.5465 158.232 55.1044 155.257 59.9306C154.523 61.1353 153.714 62.2924 152.834 63.3949C151.923 64.4696 150.949 65.4887 149.917 66.4468C149.377 66.9051 148.902 67.4367 148.325 67.8399L146.688 69.1139C146.131 69.5354 145.5 69.8654 144.914 70.2503L144 70.8094C143.698 70.9835 143.369 71.121 143.085 71.2859L141.183 72.2024L139.199 72.9448C138.542 73.2004 137.866 73.4057 137.178 73.5588C136.492 73.7238 135.824 73.9621 135.12 74.0629C133.732 74.3348 132.326 74.5063 130.913 74.5762C129.504 74.6861 128.089 74.6861 126.679 74.5762C120.991 74.1173 115.543 72.0834 110.941 68.7014L111.215 68.7564L96.2816 72.6607L95.4768 72.8715L95.8152 72.1016L102.006 58.1251V58.5192C99.7559 54.3688 98.5033 49.7493 98.3483 45.0283C98.1883 40.321 99.1027 35.6391 101.022 31.3397C102.941 27.0402 105.814 23.2366 109.423 20.2188C113.027 17.2325 117.259 15.1038 121.802 13.9926C126.344 12.8814 131.079 12.8167 135.651 13.8033C140.193 14.8207 144.449 16.8471 148.106 19.7331C151.755 22.606 154.706 26.2712 156.737 30.4527C158.767 34.6343 159.825 39.2231 159.83 43.8736ZM159.83 43.8736C159.836 39.2357 158.781 34.6581 156.746 30.4926C154.711 26.327 151.751 22.6843 148.092 19.8443C144.434 17.0043 140.174 15.0425 135.641 14.1097C131.108 13.1768 126.422 13.2978 121.942 14.4632C117.491 15.6068 113.359 17.7541 109.862 20.7412C106.401 23.7456 103.636 27.4707 101.759 31.6567C99.9167 35.8522 99.0498 40.4126 99.224 44.9932C99.3983 49.5738 100.609 54.0548 102.765 58.0976L102.866 58.29L102.784 58.4917L96.5193 72.4316L96.0529 71.8817L111.032 68.124H111.179L111.307 68.2157C115.782 71.5973 121.108 73.6633 126.688 74.1821C128.078 74.3134 129.475 74.3348 130.868 74.2462C132.264 74.1902 133.654 74.0371 135.029 73.788C135.724 73.6963 136.391 73.4672 137.077 73.3206C137.76 73.1712 138.433 72.9752 139.089 72.734L141.064 72.0191L142.966 71.1026C143.277 70.9468 143.597 70.8094 143.881 70.6444L144.795 70.0945C145.39 69.7279 146.021 69.4071 146.579 68.9947L148.271 67.7391C148.824 67.3079 149.355 66.8491 149.862 66.3644C150.897 65.4158 151.874 64.4059 152.788 63.3399C153.668 62.2453 154.481 61.0975 155.221 59.9031C158.205 55.089 159.8 49.5408 159.83 43.8736Z" fill="#263238"/>
<path d="M118.64 43.8734C118.642 44.3741 118.496 44.864 118.219 45.2812C117.943 45.6984 117.55 46.024 117.089 46.2169C116.627 46.4098 116.12 46.4612 115.629 46.3646C115.139 46.268 114.689 46.0278 114.335 45.6744C113.981 45.321 113.74 44.8704 113.641 44.3794C113.543 43.8885 113.593 43.3794 113.784 42.9167C113.974 42.4539 114.298 42.0583 114.713 41.78C115.128 41.5016 115.617 41.353 116.116 41.353C116.784 41.353 117.425 41.6183 117.898 42.0907C118.371 42.5631 118.638 43.2041 118.64 43.8734Z" fill="#263238"/>
<path d="M131.864 43.8734C131.864 44.3703 131.718 44.8561 131.443 45.2698C131.168 45.6834 130.777 46.0064 130.32 46.1982C129.863 46.39 129.359 46.442 128.872 46.3477C128.385 46.2534 127.937 46.017 127.584 45.6681C127.231 45.3193 126.988 44.8737 126.887 44.3872C126.786 43.9007 126.831 43.3952 127.016 42.934C127.2 42.4729 127.517 42.0768 127.926 41.7955C128.334 41.5142 128.817 41.3603 129.313 41.353C129.646 41.3482 129.977 41.4098 130.286 41.5343C130.596 41.6588 130.877 41.8436 131.115 42.0782C131.352 42.3127 131.541 42.5922 131.669 42.9004C131.798 43.2086 131.864 43.5393 131.864 43.8734Z" fill="#263238"/>
<path d="M145.097 43.8734C145.099 44.3741 144.952 44.864 144.676 45.2812C144.4 45.6984 144.006 46.024 143.545 46.2169C143.084 46.4098 142.576 46.4612 142.086 46.3646C141.596 46.268 141.145 46.0278 140.791 45.6744C140.437 45.321 140.196 44.8704 140.098 44.3794C140 43.8885 140.049 43.3794 140.24 42.9167C140.431 42.4539 140.754 42.0583 141.17 41.78C141.585 41.5016 142.073 41.353 142.573 41.353C143.241 41.353 143.881 41.6183 144.354 42.0907C144.827 42.5631 145.094 43.2041 145.097 43.8734Z" fill="#263238"/>
</g>
<defs>
<filter id="filter0_f_618_1160" x="-61" y="-25" width="473" height="473" filterUnits="userSpaceOnUse" color-interpolation-filters="sRGB">
<feFlood flood-opacity="0" result="BackgroundImageFix"/>
<feBlend mode="normal" in="SourceGraphic" in2="BackgroundImageFix" result="shape"/>
<feGaussianBlur stdDeviation="50" result="effect1_foregroundBlur_618_1160"/>
</filter>
<filter id="filter1_b_618_1160" x="91.9686" y="9.10361" width="72.0452" height="69.5936" filterUnits="userSpaceOnUse" color-interpolation-filters="sRGB">
<feFlood flood-opacity="0" result="BackgroundImageFix"/>
<feGaussianBlur in="BackgroundImageFix" stdDeviation="2.09224"/>
<feComposite in2="SourceAlpha" operator="in" result="effect1_backgroundBlur_618_1160"/>
<feBlend mode="normal" in="SourceGraphic" in2="effect1_backgroundBlur_618_1160" result="shape"/>
</filter>
<linearGradient id="paint0_linear_618_1160" x1="39" y1="211.5" x2="312" y2="211.5" gradientUnits="userSpaceOnUse">
<stop stop-color="#60A5FA"/>
<stop offset="1" stop-color="#3B82F6"/>
</linearGradient>
<clipPath id="clip0_618_1160">
<rect width="351" height="240" fill="white"/>
</clipPath>
</defs>
</svg>
